<svg width="480" height="360" version="1.1" xmlns="http://www.w3.org/2000/svg">
 <defs>
  <linearGradient x1="277.50" y1="244.95" x2="202.50" y2="115.05" id="lingrad" gradientUnits="userSpaceOnUse">
   <stop style="stop-color:#d8d8d8;stop-opacity:1" offset="0" />
   <stop style="stop-color:#868686;stop-opacity:1" offset="1" />
  </linearGradient>
 </defs>
 <g>
  <circle style="stroke:none;fill:url(#lingrad)" r="100" cx="240.0" cy="180.0" />
  <path fill="#555555" stroke="None" d="M315.13,255.13 C313.95,256.29 312.75,257.43 311.54,258.56 310.31,259.66 309.06,260.75 307.79,261.82 306.51,262.86 305.21,263.89 303.89,264.89 302.56,265.88 301.22,266.84 299.86,267.79 298.48,268.71 297.09,269.61 295.69,270.49 294.27,271.34 292.84,272.18 291.40,272.99 289.95,273.78 288.48,274.55 287.00,275.29 285.51,276.01 284.01,276.71 282.50,277.38 280.97,278.03 279.44,278.66 277.90,279.26 276.35,279.84 274.79,280.39 273.22,280.92 271.64,281.43 270.06,281.91 268.47,282.36 266.87,282.80 265.27,283.20 263.66,283.58 262.04,283.94 260.42,284.27 258.79,284.58 257.16,284.86 255.52,285.11 253.88,285.34 252.24,285.54 250.59,285.72 248.95,285.87 247.30,286.00 245.64,286.10 243.99,286.18 242.34,286.22 240.68,286.25 239.02,286.25 237.37,286.22 235.71,286.16 234.07,285.93 232.43,285.68 230.80,285.40 229.17,285.10 227.55,284.79 225.94,284.45 224.33,284.09 222.73,283.72 221.14,283.32 219.55,282.91 217.97,282.48 216.40,282.04 214.83,281.57 213.27,281.09 211.72,280.59 210.18,280.07 208.64,279.54 207.11,278.99 205.59,278.42 204.07,277.84 202.56,277.24 201.06,276.62 199.57,275.99 198.08,275.34 196.60,274.67 195.13,273.99 193.67,273.29 192.21,272.57 190.82,271.73 189.43,270.88 188.06,270.02 186.70,269.14 185.35,268.25 184.01,267.35 182.67,266.43 181.35,265.50 180.04,264.56 178.74,263.61 177.44,262.64 176.16,261.66 174.89,260.66 173.63,259.65 172.38,258.63 171.14,257.59 169.91,256.54 168.69,255.47 167.49,254.39 166.30,253.30 165.11,252.18 163.95,251.06 162.79,249.92 161.65,248.76 160.52,247.59 159.26,246.52 158.02,245.42 156.65,244.42 155.30,243.38 153.97,242.31 152.66,241.20 151.37,240.07 150.11,238.90 148.75,237.78 147.41,236.63 146.11,235.43 144.84,234.20 143.60,232.94 142.40,231.63 141.23,230.30 140.11,228.92 139.19,227.44 138.39,225.90 137.66,224.32 136.97,222.73 136.32,221.11 135.71,219.49 135.12,217.86 134.55,216.21 134.02,214.56 133.51,212.90 133.02,211.23 132.56,209.56 132.13,207.88 131.73,206.19 131.35,204.50 130.99,202.80 130.67,201.09 130.37,199.38 130.09,197.67 129.85,195.95 129.63,194.23 129.43,192.51 129.27,190.79 129.13,189.06 129.02,187.33 128.93,185.60 128.87,183.87 128.84,182.13 128.84,180.40 128.86,178.67 128.91,176.94 128.98,175.21 129.09,173.48 129.22,171.76 129.37,170.03 129.56,168.31 129.77,166.59 130.00,164.88 130.27,163.17 130.56,161.47 130.87,159.77 131.22,158.07 131.58,156.38 131.98,154.70 132.40,153.02 132.86,151.36 133.36,149.70 133.90,148.06 134.48,146.43 135.09,144.82 135.74,143.22 136.42,141.64 137.14,140.07 137.89,138.52 138.68,136.99 139.49,135.47 140.34,133.98 141.21,132.50 142.11,131.04 143.04,129.60 144.00,128.18 144.98,126.78 145.98,125.40 147.01,124.04 148.06,122.71 149.13,121.39 150.22,120.09 151.32,118.81 152.45,117.55 153.60,116.32 154.76,115.10 155.93,113.90 157.13,112.72 158.33,111.56 159.55,110.42 160.78,109.30 162.03,108.20 163.28,107.11 164.55,106.05 165.83,105.00 167.12,103.97 168.41,102.95 169.72,101.96 171.04,100.98 172.36,100.01 173.70,99.06 175.04,98.13 176.39,97.22 177.74,96.32 179.11,95.43 180.48,94.56 181.86,93.71 183.25,92.87 184.65,92.04 186.05,91.24 187.46,90.44 188.88,89.66 190.30,88.90 191.74,88.15 193.18,87.42 194.62,86.70 196.08,86.00 197.54,85.31 199.02,84.64 200.49,83.98 201.98,83.35 203.48,82.72 204.98,82.12 206.49,81.53 208.01,80.96 209.54,80.41 211.07,79.88 212.62,79.37 214.17,78.88 215.73,78.40 217.29,77.95 218.87,77.52 220.45,77.11 222.04,76.72 223.63,76.35 225.23,76.01 226.84,75.69 228.46,75.39 230.08,75.12 231.71,74.87 233.34,74.65 234.97,74.45 236.62,74.28 238.26,74.13 239.91,74.01 241.56,73.92 243.22,73.86 244.88,73.82 246.54,73.82 248.20,73.84 249.86,73.89 251.52,73.97 253.18,74.07 254.84,74.21 256.50,74.38 258.16,74.57 259.81,74.80 261.46,75.06 263.11,75.34 264.75,75.66 266.38,76.01 268.01,76.38 269.63,76.79 271.25,77.22 272.86,77.69 274.46,78.18 276.05,78.71 277.63,79.26 279.20,79.84 280.76,80.46 282.31,81.09 283.85,81.76 285.38,82.46 286.89,83.18 288.39,83.93 289.87,84.70 291.34,85.51 292.80,86.34 294.24,87.19 295.67,88.07 297.08,88.97 298.47,89.90 299.85,90.85 301.21,91.83 302.55,92.82 303.87,93.84 305.18,94.89 306.47,95.95 307.74,97.03 308.99,98.14 310.22,99.26 311.44,100.41 312.63,101.57 313.80,102.75 314.96,103.95 316.10,105.16 317.21,106.40 318.31,107.65 319.38,108.92 320.44,110.20 321.47,111.50 322.49,112.81 323.48,114.13 324.45,115.48 325.41,116.83 326.34,118.20 327.25,119.58 328.14,120.97 329.01,122.38 329.86,123.80 330.69,125.23 331.49,126.67 332.28,128.12 333.04,129.58 333.78,131.05 334.51,132.53 335.21,134.03 335.79,135.57 336.35,137.12 336.89,138.68 337.41,140.24 337.91,141.80 338.40,143.37 339.02,144.88 339.63,146.41 340.21,147.94 340.77,149.48 341.31,151.03 341.82,152.60 342.31,154.17 342.78,155.74 343.22,157.33 343.64,158.93 344.04,160.53 344.40,162.14 344.75,163.76 345.07,165.38 345.36,167.01 345.62,168.64 345.86,170.28 346.07,171.93 346.25,173.58 346.41,175.23 346.53,176.89 346.63,178.55 346.70,180.21 346.74,181.87 346.75,183.54 346.74,185.20 346.69,186.87 346.62,188.53 346.52,190.20 346.38,191.86 346.22,193.52 346.03,195.18 345.81,196.83 345.56,198.48 345.28,200.13 344.97,201.77 344.63,203.41 344.27,205.04 343.87,206.66 343.45,208.28 343.00,209.88 342.65,211.52 342.26,213.16 341.84,214.78 341.39,216.40 340.90,218.01 340.38,219.61 339.84,221.21 339.25,222.79 338.64,224.36 338.00,225.92 337.32,227.46 336.61,229.00 335.88,230.52 335.11,232.02 334.31,233.51 333.48,234.98 332.62,236.44 331.74,237.88 330.82,239.30 329.88,240.70 328.91,242.08 327.91,243.45 326.89,244.79 325.85,246.12 324.77,247.42 323.68,248.71 322.56,249.97 321.42,251.21 A7.35,7.35 0 0,1 309.13,240.46 C310.02,239.34 310.89,238.21 311.76,237.07 312.60,235.92 313.44,234.76 314.26,233.59 315.07,232.42 315.86,231.23 316.64,230.04 317.41,228.84 318.17,227.63 318.91,226.41 319.64,225.19 320.36,223.95 321.07,222.71 321.76,221.46 322.44,220.21 323.11,218.94 323.76,217.67 324.41,216.39 325.04,215.10 325.65,213.80 326.26,212.50 326.85,211.18 327.43,209.86 327.99,208.53 328.54,207.19 329.08,205.85 329.47,204.45 329.85,203.06 330.20,201.66 330.54,200.25 330.86,198.84 331.16,197.43 331.44,196.01 331.71,194.59 331.95,193.16 332.18,191.73 332.39,190.30 332.57,188.86 332.74,187.42 332.89,185.98 333.02,184.53 333.14,183.08 333.23,181.63 333.30,180.18 333.35,178.73 333.38,177.27 333.39,175.81 333.38,174.36 333.36,172.90 333.30,171.44 333.23,169.98 333.14,168.51 333.03,167.05 332.89,165.59 332.73,164.14 332.55,162.68 332.35,161.22 332.12,159.77 331.87,158.32 331.60,156.87 331.31,155.43 330.99,153.98 330.65,152.55 330.28,151.12 329.89,149.69 329.47,148.27 329.04,146.85 328.41,145.51 327.75,144.18 327.08,142.86 326.37,141.56 325.65,140.28 324.89,139.00 324.22,137.70 323.52,136.41 322.80,135.13 322.06,133.86 321.29,132.61 320.51,131.37 319.71,130.15 318.88,128.94 318.04,127.74 317.17,126.56 316.29,125.39 315.39,124.24 314.47,123.10 313.53,121.98 312.58,120.88 311.61,119.79 310.62,118.72 309.61,117.66 308.59,116.63 307.55,115.60 306.50,114.60 305.43,113.61 304.35,112.64 303.26,111.69 302.15,110.75 301.03,109.83 299.89,108.93 298.75,108.04 297.59,107.18 296.42,106.33 295.24,105.49 294.04,104.68 292.84,103.88 291.63,103.09 290.40,102.33 289.17,101.58 287.93,100.85 286.67,100.14 285.41,99.44 284.14,98.76 282.86,98.09 281.58,97.45 280.28,96.82 278.98,96.20 277.67,95.61 276.35,95.03 275.03,94.46 273.70,93.91 272.36,93.38 271.01,92.87 269.66,92.37 268.30,91.89 266.93,91.43 265.56,90.98 264.18,90.55 262.80,90.13 261.41,89.74 260.01,89.36 258.61,89.00 257.20,88.65 255.79,88.33 254.37,88.02 252.95,87.73 251.52,87.46 250.08,87.20 248.64,86.97 247.20,86.76 245.75,86.56 244.30,86.39 242.84,86.23 241.38,86.10 239.92,85.99 238.46,85.90 236.99,85.83 235.51,85.78 234.04,85.75 232.56,85.75 231.09,85.77 229.61,85.82 228.13,85.89 226.65,85.98 225.17,86.10 223.69,86.24 222.21,86.41 220.74,86.60 219.27,86.83 217.80,87.07 216.33,87.35 214.87,87.65 213.41,87.98 211.96,88.33 210.51,88.72 209.08,89.13 207.65,89.57 206.22,90.04 204.81,90.54 203.41,91.06 202.01,91.61 200.63,92.20 199.26,92.81 197.91,93.44 196.56,94.11 195.23,94.80 193.92,95.53 192.62,96.28 191.34,97.05 190.07,97.86 188.83,98.69 187.60,99.54 186.39,100.42 185.20,101.33 184.03,102.26 182.88,103.22 181.75,104.20 180.64,105.20 179.56,106.22 178.50,107.27 177.46,108.34 176.44,109.42 175.45,110.53 174.48,111.65 173.54,112.80 172.62,113.96 171.72,115.13 170.85,116.32 170.00,117.53 169.18,118.75 168.38,119.98 167.60,121.22 166.85,122.48 166.12,123.75 165.41,125.02 164.72,126.31 164.06,127.60 163.42,128.90 162.80,130.21 162.20,131.52 161.62,132.84 161.07,134.16 160.53,135.49 160.00,136.82 159.50,138.16 159.01,139.49 158.54,140.83 158.09,142.17 157.65,143.52 157.23,144.86 156.81,146.21 156.41,147.55 156.03,148.90 155.65,150.24 155.29,151.59 154.93,152.94 154.59,154.29 154.25,155.64 153.92,156.99 153.60,158.34 153.29,159.69 153.00,161.05 152.73,162.41 152.48,163.77 152.25,165.14 152.04,166.51 151.86,167.88 151.70,169.26 151.55,170.64 151.43,172.02 151.34,173.40 151.26,174.78 151.20,176.17 151.17,177.55 151.16,178.94 151.17,180.32 151.20,181.70 151.25,183.09 151.32,184.47 151.42,185.85 151.54,187.23 151.67,188.60 151.83,189.98 152.02,191.35 152.22,192.71 152.44,194.08 152.69,195.44 152.95,196.79 153.24,198.14 153.55,199.49 153.88,200.83 154.23,202.17 154.60,203.49 154.99,204.82 155.41,206.13 155.84,207.44 156.29,208.75 156.76,210.04 157.25,211.33 157.76,212.61 158.28,213.89 158.81,215.16 159.34,216.43 159.85,217.72 160.28,219.05 160.54,220.46 160.82,221.89 161.09,223.33 161.38,224.78 161.67,226.25 161.97,227.72 162.28,229.21 162.61,230.71 163.07,232.14 163.55,233.57 164.05,235.01 164.56,236.45 165.10,237.89 165.66,239.33 166.38,240.66 167.12,241.98 168.03,243.16 168.96,244.33 169.91,245.48 170.89,246.62 171.89,247.73 172.91,248.83 173.95,249.91 175.02,250.96 176.10,252.00 177.21,253.01 178.34,254.00 179.49,254.97 180.66,255.91 181.84,256.83 183.05,257.72 184.28,258.59 185.52,259.43 186.78,260.24 188.06,261.03 189.35,261.78 190.66,262.51 191.99,263.22 193.32,263.89 194.68,264.53 196.04,265.15 197.37,265.84 198.70,266.50 200.05,267.13 201.42,267.74 202.79,268.33 204.18,268.88 205.58,269.40 206.99,269.90 208.40,270.37 209.83,270.81 211.26,271.22 212.70,271.60 214.15,271.95 215.61,272.27 217.07,272.56 218.53,272.82 220.00,273.05 221.47,273.25 222.95,273.42 224.42,273.57 225.90,273.68 227.38,273.76 228.85,273.82 230.33,273.84 231.81,273.84 233.28,273.81 234.75,273.76 236.22,273.67 237.68,273.72 239.14,273.75 240.60,273.75 242.06,273.73 243.52,273.68 244.98,273.62 246.44,273.53 247.89,273.42 249.35,273.28 250.80,273.13 252.25,272.95 253.70,272.74 255.14,272.52 256.58,272.27 258.01,272.00 259.45,271.71 260.87,271.40 262.29,271.06 263.71,270.70 265.12,270.32 266.52,269.92 267.92,269.50 269.31,269.05 270.70,268.58 272.07,268.09 273.44,267.58 274.80,267.05 276.15,266.50 277.50,265.92 278.83,265.33 280.16,264.71 281.47,264.08 282.78,263.42 284.07,262.75 285.35,262.05 286.63,261.33 287.89,260.60 289.14,259.84 290.38,259.07 291.60,258.27 292.81,257.46 294.01,256.63 295.20,255.77 296.38,254.91 297.54,254.02 298.68,253.11 299.81,252.19 300.93,251.25 302.03,250.29 303.12,249.32 304.19,248.32 305.25,247.32 306.29,246.29 A5.63,5.63 0 0,1 315.13,255.13 Z" />
 </g>
</svg>