<?xml version="1.0" encoding="UTF-8" standalone="no"?>
<svg
   width="480"
   height="360"
   version="1.1"
   id="svg2"
   sodipodi:docname="ell.svg"
   inkscape:version="1.3.2 (091e20e, 2023-11-25, custom)"
   xmlns:inkscape="http://www.inkscape.org/namespaces/inkscape"
   xmlns:sodipodi="http://sodipodi.sourceforge.net/DTD/sodipodi-0.dtd"
   xmlns="http://www.w3.org/2000/svg"
   xmlns:svg="http://www.w3.org/2000/svg">
  <sodipodi:namedview
     id="namedview2"
     pagecolor="#ffffff"
     bordercolor="#000000"
     borderopacity="0.25"
     inkscape:showpageshadow="2"
     inkscape:pageopacity="0.0"
     inkscape:pagecheckerboard="0"
     inkscape:deskcolor="#d1d1d1"
     inkscape:zoom="1.8479167"
     inkscape:cx="240"
     inkscape:cy="179.93236"
     inkscape:window-width="1920"
     inkscape:window-height="1017"
     inkscape:window-x="1912"
     inkscape:window-y="-8"
     inkscape:window-maximized="1"
     inkscape:current-layer="g2" />
  <defs
     id="defs2">
    <linearGradient
       x1="268.12"
       y1="228.71"
       x2="211.88"
       y2="131.29"
       id="lg"
       gradientUnits="userSpaceOnUse">
      <stop
         style="stop-color:#5555cc;stop-opacity:1"
         offset="0"
         id="stop1" />
      <stop
         style="stop-color:#bbbbbb;stop-opacity:1"
         offset="1"
         id="stop2" />
    </linearGradient>
  </defs>
  <g
     id="g2">
    <ellipse
       style="stroke:none;fill:url(#lg)"
       cx="240.0"
       cy="180.0"
       rx="100.0"
       ry="50.0"
       transform="rotate(30.0 240.0 180.0)"
       id="ellipse2" />
    <path
       stroke="None"
       d="M283.86,240.98 C282.83,240.86 281.8,240.73 280.76,240.59 279.71,240.44 278.66,240.28 277.6,240.11 276.53,239.93 275.45,239.74 274.37,239.54 273.28,239.33 272.18,239.11 271.08,238.89 269.97,238.65 268.86,238.4 267.74,238.15 266.61,237.88 265.48,237.61 264.34,237.33 263.2,237.03 262.05,236.73 260.9,236.42 259.74,236.11 258.58,235.78 257.41,235.44 256.24,235.1 255.07,234.74 253.89,234.38 252.71,234.01 251.52,233.63 250.34,233.24 249.15,232.84 247.95,232.43 246.76,232.01 245.56,231.59 244.36,231.15 243.16,230.71 241.96,230.25 240.76,229.79 239.55,229.32 238.35,228.84 237.14,228.35 235.94,227.85 234.74,227.35 233.53,226.83 232.33,226.3 231.13,225.77 229.93,225.22 228.73,224.67 227.53,224.11 226.33,223.54 225.14,222.96 223.95,222.37 222.76,221.77 221.58,221.16 220.4,220.55 219.22,219.92 218.05,219.29 216.88,218.65 215.72,218.0 214.56,217.34 213.41,216.67 212.26,215.99 211.12,215.31 209.99,214.62 208.86,213.91 207.73,213.21 206.62,212.49 205.51,211.77 204.41,211.03 203.31,210.3 202.23,209.55 201.15,208.8 200.08,208.03 199.02,207.27 197.97,206.49 196.93,205.71 195.89,204.93 194.87,204.13 193.85,203.34 192.85,202.53 191.86,201.72 190.87,200.91 189.9,200.09 188.94,199.26 187.98,198.43 187.04,197.6 186.11,196.76 185.19,195.91 184.29,195.07 183.39,194.22 182.51,193.36 181.64,192.51 180.78,191.65 179.94,190.78 179.1,189.92 178.28,189.05 177.47,188.18 176.68,187.31 175.9,186.44 175.13,185.56 174.37,184.69 173.63,183.81 172.9,182.94 172.19,182.06 171.48,181.18 170.8,180.31 170.12,179.43 169.46,178.55 168.82,177.68 168.19,176.81 167.57,175.93 166.97,175.06 166.38,174.19 165.8,173.33 165.24,172.46 164.7,171.6 164.17,170.74 163.65,169.88 163.15,169.03 162.67,168.18 162.2,167.33 161.74,166.49 161.3,165.65 160.87,164.81 160.46,163.98 160.07,163.16 159.69,162.34 159.32,161.52 158.97,160.71 158.63,159.9 158.31,159.1 158.01,158.31 157.72,157.52 157.44,156.74 157.18,155.96 156.82,155.23 156.48,154.49 156.16,153.77 155.85,153.04 155.56,152.31 155.29,151.59 155.04,150.87 154.8,150.15 154.59,149.44 154.39,148.73 154.21,148.02 154.06,147.32 153.92,146.62 153.8,145.93 153.7,145.24 153.63,144.56 153.57,143.88 153.53,143.21 153.51,142.54 153.52,141.88 153.54,141.23 153.58,140.59 153.65,139.95 153.73,139.33 153.83,138.71 153.95,138.1 154.09,137.5 154.25,136.91 154.43,136.33 154.63,135.76 154.84,135.2 155.07,134.65 155.32,134.11 155.59,133.58 155.87,133.07 156.17,132.56 156.48,132.07 156.81,131.59 157.16,131.12 157.52,130.66 157.89,130.22 158.28,129.78 158.68,129.36 159.09,128.95 159.52,128.54 159.96,128.15 160.42,127.77 160.88,127.4 161.36,127.04 161.85,126.7 162.35,126.36 162.87,126.03 163.45,125.78 164.04,125.55 164.64,125.33 165.25,125.11 165.86,124.91 166.48,124.71 167.1,124.51 167.73,124.33 168.37,124.15 169.02,123.97 169.67,123.8 170.34,123.64 171.01,123.48 171.69,123.32 172.38,123.17 173.08,123.02 173.78,122.87 174.5,122.73 175.23,122.58 175.97,122.45 176.72,122.31 177.47,122.18 178.25,122.05 179.03,121.93 179.82,121.81 180.62,121.69 181.44,121.57 182.27,121.46 183.11,121.36 183.96,121.25 184.83,121.16 185.7,121.06 186.59,120.97 187.49,120.89 188.41,120.81 189.33,120.74 190.27,120.68 191.22,120.62 192.18,120.57 193.16,120.53 194.14,120.49 195.14,120.47 196.15,120.45 197.17,120.44 198.2,120.44 199.24,120.45 200.29,120.47 201.35,120.5 202.42,120.54 203.5,120.59 204.59,120.65 205.69,120.72 206.8,120.81 207.92,120.91 209.04,121.02 210.18,121.14 211.32,121.28 212.46,121.42 213.62,121.59 214.78,121.76 215.94,121.95 217.11,122.15 218.29,122.37 219.47,122.6 220.66,122.85 221.85,123.11 223.05,123.38 224.24,123.67 225.45,123.97 226.65,124.29 227.86,124.62 229.06,124.97 230.27,125.33 231.48,125.71 232.7,126.1 233.91,126.5 235.12,126.92 236.34,127.36 237.55,127.8 238.76,128.26 240.01,128.65 241.25,129.06 242.5,129.48 243.74,129.91 244.98,130.37 246.22,130.84 247.45,131.32 248.68,131.83 249.91,132.34 251.13,132.88 252.35,133.43 253.56,133.99 254.77,134.57 255.97,135.17 257.17,135.78 258.36,136.41 259.54,137.05 260.72,137.7 261.88,138.37 263.05,139.05 264.2,139.74 265.34,140.45 266.48,141.16 267.61,141.89 268.73,142.63 269.84,143.39 270.95,144.15 272.04,144.92 273.13,145.71 274.2,146.5 275.27,147.3 276.33,148.11 277.38,148.93 278.41,149.75 279.44,150.59 280.46,151.43 281.47,152.27 282.47,153.12 283.46,153.98 284.44,154.84 285.4,155.71 286.36,156.58 287.31,157.46 288.25,158.33 289.18,159.22 290.1,160.1 291.0,160.99 291.9,161.87 292.79,162.77 293.67,163.66 294.53,164.55 295.39,165.44 296.24,166.34 297.07,167.23 297.9,168.12 298.71,169.02 299.52,169.91 300.31,170.8 301.1,171.69 301.87,172.58 302.64,173.47 303.39,174.36 304.13,175.24 304.86,176.12 305.58,177.0 306.29,177.88 306.99,178.76 307.68,179.63 308.36,180.5 309.02,181.37 309.68,182.23 310.32,183.09 310.96,183.95 311.58,184.8 312.19,185.65 312.78,186.5 313.37,187.34 313.94,188.18 314.51,189.02 315.06,189.85 315.59,190.68 316.12,191.51 316.63,192.33 317.13,193.15 317.62,193.96 318.09,194.77 318.55,195.58 319.0,196.38 319.43,197.18 319.85,197.97 320.26,198.76 320.65,199.55 321.13,200.28 321.6,201.02 322.06,201.75 322.49,202.49 322.91,203.22 323.32,203.95 323.7,204.69 324.06,205.42 324.41,206.15 324.74,206.89 325.04,207.62 325.33,208.35 325.6,209.07 325.84,209.8 326.06,210.52 326.27,211.24 326.45,211.96 326.6,212.68 326.74,213.39 326.85,214.09 326.95,214.8 327.02,215.49 327.06,216.18 327.09,216.87 327.09,217.55 327.07,218.22 327.03,218.88 326.97,219.54 326.88,220.18 326.78,220.82 326.65,221.45 326.51,222.06 326.34,222.67 326.15,223.26 325.95,223.85 325.72,224.42 325.48,224.98 325.22,225.53 324.94,226.06 324.64,226.58 A2.98,2.98 0 0,0 330.66,229.36 C330.93,228.63 331.17,227.89 331.4,227.15 331.62,226.41 331.82,225.66 332.01,224.9 332.18,224.14 332.34,223.37 332.49,222.6 332.62,221.82 332.74,221.04 332.85,220.25 332.95,219.46 333.03,218.66 333.1,217.85 333.16,217.04 333.21,216.22 333.25,215.39 333.28,214.55 333.29,213.71 333.3,212.86 333.29,212.0 333.27,211.13 333.24,210.25 333.2,209.37 333.14,208.47 333.08,207.57 333.0,206.66 332.91,205.74 332.8,204.81 332.68,203.87 332.55,202.93 332.41,201.98 332.25,201.01 332.07,200.04 331.88,199.07 331.68,198.08 331.46,197.09 331.22,196.09 330.97,195.08 330.59,194.12 330.19,193.15 329.78,192.19 329.35,191.22 328.9,190.25 328.43,189.28 327.95,188.31 327.44,187.34 326.92,186.37 326.38,185.4 325.82,184.43 325.25,183.47 324.66,182.5 324.05,181.54 323.42,180.57 322.78,179.61 322.12,178.65 321.44,177.7 320.74,176.74 320.03,175.79 319.3,174.85 318.55,173.9 317.79,172.96 317.01,172.03 316.22,171.1 315.41,170.17 314.58,169.25 313.74,168.33 312.88,167.42 312.01,166.52 311.13,165.62 310.22,164.72 309.31,163.83 308.38,162.95 307.44,162.07 306.48,161.2 305.51,160.34 304.53,159.48 303.54,158.62 302.53,157.78 301.52,156.94 300.49,156.11 299.45,155.28 298.4,154.46 297.34,153.65 296.26,152.84 295.18,152.04 294.09,151.24 292.99,150.46 291.89,149.67 290.77,148.9 289.65,148.13 288.52,147.37 287.38,146.61 286.23,145.86 285.08,145.11 283.92,144.37 282.76,143.63 281.59,142.9 280.42,142.18 279.24,141.46 278.05,140.74 276.87,140.03 275.68,139.33 274.48,138.63 273.28,137.93 272.08,137.24 270.88,136.55 269.67,135.86 268.46,135.18 267.25,134.5 266.04,133.83 264.83,133.15 263.61,132.49 262.4,131.82 261.18,131.16 259.96,130.5 258.74,129.84 257.53,129.19 256.31,128.54 255.09,127.89 253.87,127.25 252.65,126.6 251.43,125.97 250.21,125.33 248.99,124.7 247.77,124.07 246.55,123.44 245.34,122.82 244.12,122.2 242.9,121.59 241.68,120.98 240.43,120.46 239.18,119.95 237.93,119.45 236.69,118.95 235.44,118.46 234.2,117.98 232.95,117.5 231.71,117.04 230.47,116.58 229.23,116.13 228.0,115.68 226.77,115.25 225.54,114.82 224.31,114.4 223.08,113.99 221.86,113.58 220.64,113.19 219.42,112.81 218.21,112.43 217.0,112.06 215.79,111.71 214.58,111.36 213.38,111.03 212.18,110.7 210.98,110.39 209.79,110.09 208.6,109.8 207.42,109.52 206.23,109.25 205.06,109.0 203.88,108.76 202.71,108.53 201.55,108.32 200.39,108.12 199.23,107.94 198.08,107.77 196.93,107.62 195.79,107.48 194.65,107.36 193.52,107.25 192.4,107.16 191.28,107.09 190.16,107.04 189.06,107.0 187.96,106.99 186.86,106.99 185.78,107.01 184.7,107.05 183.63,107.11 182.57,107.18 181.52,107.28 180.48,107.4 179.45,107.54 178.43,107.7 177.42,107.88 176.42,108.08 175.43,108.31 174.46,108.55 173.49,108.81 172.54,109.1 171.61,109.41 170.69,109.73 169.78,110.08 168.89,110.45 168.02,110.84 167.16,111.25 166.33,111.68 165.5,112.13 164.7,112.59 163.92,113.08 163.15,113.58 162.41,114.1 161.69,114.64 160.98,115.2 160.3,115.77 159.64,116.35 159.01,116.95 158.39,117.56 157.8,118.19 157.23,118.82 156.63,119.39 156.04,119.97 155.46,120.57 154.91,121.17 154.38,121.79 153.86,122.41 153.36,123.05 152.88,123.69 152.42,124.35 151.97,125.01 151.55,125.68 151.14,126.36 150.75,127.05 150.38,127.74 150.02,128.44 149.68,129.15 149.36,129.86 149.05,130.59 148.76,131.31 148.49,132.05 148.23,132.79 147.99,133.54 147.76,134.29 147.55,135.05 147.35,135.82 147.17,136.59 147.0,137.37 146.85,138.16 146.71,138.95 146.58,139.75 146.47,140.56 146.37,141.37 146.29,142.19 146.21,143.02 146.15,143.86 146.11,144.7 146.08,145.55 146.06,146.41 146.06,147.28 146.06,148.15 146.09,149.03 146.13,149.92 146.18,150.82 146.24,151.72 146.32,152.63 146.42,153.55 146.53,154.48 146.65,155.42 146.79,156.36 146.95,157.31 147.12,158.26 147.31,159.23 147.63,160.16 147.96,161.09 148.32,162.02 148.69,162.95 149.08,163.89 149.48,164.82 149.9,165.76 150.34,166.7 150.8,167.64 151.27,168.58 151.76,169.52 152.26,170.46 152.79,171.4 153.32,172.34 153.88,173.28 154.44,174.22 155.03,175.16 155.63,176.1 156.24,177.04 156.87,177.98 157.52,178.92 158.18,179.86 158.85,180.8 159.54,181.73 160.24,182.67 160.96,183.6 161.69,184.53 162.43,185.47 163.19,186.4 163.96,187.32 164.74,188.25 165.54,189.17 166.35,190.1 167.17,191.02 168.01,191.94 168.85,192.85 169.71,193.77 170.58,194.68 171.47,195.59 172.36,196.49 173.27,197.4 174.18,198.3 175.11,199.19 176.05,200.09 177.0,200.98 177.96,201.87 178.93,202.76 179.91,203.64 180.9,204.52 181.9,205.39 182.9,206.26 183.92,207.13 184.95,207.99 185.99,208.85 187.03,209.71 188.08,210.56 189.15,211.41 190.22,212.25 191.29,213.09 192.38,213.92 193.47,214.75 194.57,215.57 195.68,216.39 196.8,217.21 197.92,218.01 199.05,218.82 200.19,219.61 201.33,220.4 202.48,221.19 203.63,221.97 204.8,222.74 205.96,223.51 207.14,224.27 208.31,225.02 209.5,225.77 210.69,226.51 211.88,227.24 213.08,227.96 214.28,228.68 215.49,229.39 216.7,230.09 217.92,230.79 219.14,231.47 220.37,232.15 221.59,232.81 222.83,233.47 224.06,234.12 225.3,234.76 226.54,235.39 227.78,236.01 229.03,236.62 230.28,237.22 231.53,237.81 232.79,238.39 234.04,238.96 235.3,239.52 236.56,240.06 237.82,240.6 239.08,241.12 240.34,241.63 241.61,242.13 242.87,242.62 244.13,243.09 245.4,243.55 246.66,244.0 247.92,244.44 249.19,244.86 250.45,245.27 251.71,245.67 252.97,246.05 254.23,246.42 255.48,246.78 256.74,247.12 257.99,247.45 259.24,247.76 260.48,248.06 261.73,248.34 262.97,248.61 264.2,248.87 265.44,249.11 266.66,249.34 267.89,249.55 269.11,249.75 270.32,249.93 271.53,250.09 272.73,250.25 273.93,250.39 275.12,250.51 276.3,250.62 277.48,250.71 278.65,250.79 279.82,250.86 280.97,250.91 282.12,250.94 283.26,250.96 A4.5,4.5 0 0,0 283.86,240.98 Z"
       id="path2"
       style="fill:rgba(255,0,255,0.5);fill-opacity:1" />
  </g>
</svg>
