<svg width="500" height="300" version="1.1" xmlns="http://www.w3.org/2000/svg">
 <defs />
 <path fill="#555555" stroke="None" d="M99.94,152.55 C101.45,152.56 102.98,152.54 104.5,152.5 106.03,152.43 107.57,152.33 109.1,152.2 110.64,152.03 112.17,151.82 113.7,151.58 115.23,151.32 116.74,151.03 118.25,150.73 119.74,150.43 121.22,150.14 122.68,149.88 124.12,149.66 125.54,149.5 126.94,149.42 128.32,149.41 129.69,149.51 131.04,149.7 132.38,150.01 133.73,150.43 135.09,150.97 136.47,151.63 137.87,152.39 139.29,153.24 140.74,154.16 142.22,155.11 143.74,156.07 145.29,156.99 146.96,157.7 148.67,158.27 150.43,158.63 152.21,158.73 154.0,158.5 155.75,157.93 157.44,157.02 159.05,155.79 160.62,154.26 162.15,152.47 163.66,150.46 165.17,148.27 166.67,145.97 168.16,143.63 169.66,141.37 171.14,139.27 172.71,137.56 174.2,136.27 175.5,135.5 176.48,135.3 177.13,135.47 177.82,135.96 178.76,137.05 179.91,138.87 181.16,141.42 182.47,144.63 183.82,148.4 185.21,152.6 186.62,157.1 188.06,161.72 189.53,166.3 191.03,170.66 192.57,174.62 194.2,178.05 196.01,180.87 198.39,183.03 201.93,183.75 205.04,182.14 207.04,179.44 208.64,175.91 210.13,171.44 211.57,166.07 212.99,159.92 214.39,153.16 215.78,146.01 217.17,138.73 218.56,131.6 219.94,124.89 221.32,118.89 222.68,113.88 224.02,110.11 225.19,107.9 225.64,107.36 225.82,107.46 227.03,109.14 228.49,112.66 230.0,117.75 231.51,124.21 233.03,131.77 234.53,140.16 236.03,149.08 237.53,158.18 239.01,167.12 240.49,175.57 241.97,183.2 243.44,189.74 244.93,194.94 246.49,198.7 248.48,201.07 251.55,201.11 253.65,198.78 255.31,195.03 256.9,189.83 258.47,183.3 260.04,175.67 261.59,167.23 263.15,158.29 264.7,149.2 266.24,140.3 267.78,131.92 269.31,124.38 270.83,117.96 272.31,112.92 273.7,109.51 274.71,108.04 274.23,108.09 274.28,108.33 275.43,110.37 276.82,114.04 278.27,119.0 279.75,124.96 281.24,131.64 282.74,138.75 284.24,146.01 285.76,153.13 287.29,159.86 288.82,165.97 290.37,171.28 291.95,175.66 293.62,179.06 295.55,181.5 298.21,182.8 301.07,182.13 303.11,180.18 304.77,177.5 306.2,174.1 307.59,170.15 308.96,165.79 310.34,161.2 311.72,156.56 313.11,152.03 314.5,147.78 315.91,143.95 317.32,140.66 318.72,138.01 320.09,136.05 321.4,134.82 322.59,134.27 323.71,134.27 324.92,134.77 326.23,135.79 327.6,137.29 329.0,139.17 330.41,141.32 331.83,143.64 333.26,146.01 334.69,148.36 336.14,150.6 337.61,152.67 339.12,154.52 340.68,156.11 342.33,157.4 344.08,158.37 345.91,158.98 347.8,159.22 349.66,159.1 351.47,158.7 353.21,158.08 354.88,157.31 356.49,156.45 358.05,155.55 359.56,154.65 361.03,153.78 362.46,152.98 363.85,152.28 365.2,151.67 366.51,151.17 367.81,150.78 369.1,150.49 370.39,150.3 371.69,149.97 373.04,149.73 374.45,149.59 375.9,149.53 377.38,149.54 378.89,149.6 380.41,149.71 381.93,149.84 383.46,149.99 384.98,150.15 386.5,150.3 388.01,150.48 389.51,150.65 391.01,150.8 392.51,150.92 394.02,151.0 395.52,151.05 397.02,151.08 398.52,151.07 400.01,151.05 A0.45,0.45 0 0,0 399.99,150.06 C398.5,150.12 397.01,150.16 395.53,150.17 394.04,150.15 392.56,150.1 391.08,150.01 389.59,149.87 388.11,149.68 386.64,149.42 385.17,149.07 383.71,148.68 382.25,148.24 380.79,147.77 379.32,147.3 377.84,146.82 376.34,146.36 374.8,145.94 373.22,145.58 371.6,145.3 369.91,145.13 368.22,145.33 366.52,145.67 364.83,146.16 363.16,146.79 361.53,147.54 359.93,148.39 358.37,149.32 356.86,150.29 355.38,151.26 353.96,152.2 352.58,153.06 351.27,153.8 350.02,154.38 348.84,154.78 347.73,154.99 346.62,154.99 345.48,154.77 344.24,154.26 342.9,153.41 341.48,152.22 340.0,150.7 338.49,148.89 336.95,146.84 335.4,144.63 333.84,142.34 332.28,140.07 330.7,137.92 329.12,135.99 327.5,134.37 325.83,133.16 324.05,132.5 322.18,132.53 320.39,133.34 318.71,134.84 317.1,137.0 315.52,139.78 313.94,143.13 312.36,146.99 310.77,151.23 309.17,155.72 307.57,160.3 305.96,164.77 304.35,168.95 302.75,172.62 301.2,175.57 299.87,177.63 298.93,178.52 298.81,178.57 298.48,178.3 297.42,176.82 296.1,173.98 294.7,169.91 293.27,164.79 291.82,158.8 290.36,152.13 288.89,145.04 287.41,137.78 285.93,130.63 284.43,123.87 282.92,117.75 281.39,112.53 279.79,108.36 277.96,105.29 275.02,103.43 271.56,104.57 269.58,107.42 267.99,111.48 266.49,116.86 265.02,123.47 263.56,131.13 262.12,139.59 260.68,148.53 259.24,157.64 257.81,166.58 256.38,174.99 254.96,182.55 253.54,188.96 252.15,193.93 250.83,197.19 249.94,198.44 250.03,198.48 249.03,197.27 247.61,194.01 246.11,189.05 244.6,182.65 243.09,175.09 241.59,166.68 240.09,157.75 238.59,148.65 237.11,139.72 235.63,131.28 234.16,123.65 232.69,117.07 231.21,111.75 229.69,107.79 227.91,105.15 225.1,104.16 222.57,105.72 220.76,108.61 219.11,112.69 217.49,117.86 215.88,123.94 214.28,130.68 212.68,137.8 211.08,145.04 209.49,152.1 207.91,158.73 206.34,164.69 204.79,169.75 203.3,173.73 201.92,176.44 200.93,177.66 201.05,177.62 201.61,177.63 201.01,176.94 199.83,175.02 198.47,172.1 197.03,168.44 195.55,164.26 194.03,159.78 192.48,155.18 190.91,150.66 189.31,146.37 187.68,142.46 186.01,139.02 184.27,136.14 182.43,133.85 180.39,132.2 178.09,131.34 175.76,131.47 173.75,132.43 172.07,133.9 170.58,135.72 169.16,137.82 167.66,140.03 166.16,142.34 164.68,144.68 163.19,146.93 161.71,149.03 160.24,150.9 158.78,152.48 157.36,153.73 156.0,154.64 154.7,155.21 153.46,155.47 152.27,155.48 151.07,155.25 149.84,154.8 148.56,154.17 147.24,153.38 145.82,152.58 144.35,151.7 142.84,150.78 141.3,149.86 139.74,148.99 138.16,148.19 136.55,147.48 134.92,146.9 133.29,146.44 131.65,146.11 130.02,145.92 128.39,145.85 126.79,145.89 125.21,146.02 123.64,146.22 122.1,146.47 120.58,146.76 119.07,147.06 117.58,147.35 116.1,147.64 114.62,147.9 113.16,148.14 111.71,148.33 110.26,148.49 108.81,148.61 107.36,148.68 105.91,148.72 104.45,148.72 103.0,148.69 101.53,148.64 100.06,148.56 A1.8,1.8 0 0,0 99.94,152.55 Z" />
</svg>