<?xml version="1.0" encoding="UTF-8" standalone="no"?>
<svg
   width="480"
   height="360"
   version="1.1"
   id="svg1"
   sodipodi:docname="sample-worked.svg"
   inkscape:version="1.3.2 (091e20e, 2023-11-25, custom)"
   xmlns:inkscape="http://www.inkscape.org/namespaces/inkscape"
   xmlns:sodipodi="http://sodipodi.sourceforge.net/DTD/sodipodi-0.dtd"
   xmlns:xlink="http://www.w3.org/1999/xlink"
   xmlns="http://www.w3.org/2000/svg"
   xmlns:svg="http://www.w3.org/2000/svg">
  <defs
     id="defs1">
    <marker
       style="overflow:visible"
       id="ConcaveTriangle"
       refX="0"
       refY="0"
       orient="auto-start-reverse"
       inkscape:stockid="Concave triangle arrow"
       markerWidth="1"
       markerHeight="1"
       viewBox="0 0 1 1"
       inkscape:isstock="true"
       inkscape:collect="always"
       preserveAspectRatio="xMidYMid">
      <path
         transform="scale(0.7)"
         d="M -2,-4 9,0 -2,4 c 2,-2.33 2,-5.66 0,-8 z"
         style="fill:context-stroke;fill-rule:evenodd;stroke:none"
         id="path31" />
    </marker>
    <linearGradient
       id="linearGradient29"
       inkscape:collect="always">
      <stop
         style="stop-color:#868686;stop-opacity:1;"
         offset="0"
         id="stop29" />
      <stop
         style="stop-color:#d8d8d8;stop-opacity:1;"
         offset="1"
         id="stop30" />
    </linearGradient>
    <linearGradient
       id="linearGradient28"
       inkscape:collect="always">
      <stop
         style="stop-color:#ffffff;stop-opacity:1;"
         offset="0"
         id="stop27" />
      <stop
         style="stop-color:#ffffff;stop-opacity:1;"
         offset="1"
         id="stop28" />
    </linearGradient>
    <linearGradient
       id="linearGradient26"
       inkscape:collect="always">
      <stop
         style="stop-color:#fefefe;stop-opacity:1;"
         offset="0"
         id="stop25" />
      <stop
         style="stop-color:#ffffff;stop-opacity:1;"
         offset="1"
         id="stop26" />
    </linearGradient>
    <linearGradient
       id="linearGradient12"
       inkscape:collect="always">
      <stop
         style="stop-color:#ffffff;stop-opacity:1;"
         offset="0"
         id="stop11" />
      <stop
         style="stop-color:#ffffff;stop-opacity:1;"
         offset="1"
         id="stop12" />
    </linearGradient>
    <linearGradient
       id="linearGradient6"
       inkscape:collect="always">
      <stop
         style="stop-color:#ffffff;stop-opacity:1;"
         offset="0"
         id="stop5" />
      <stop
         style="stop-color:#ffffff;stop-opacity:1;"
         offset="1"
         id="stop6" />
    </linearGradient>
    <linearGradient
       inkscape:collect="always"
       xlink:href="#linearGradient28"
       id="linearGradient7"
       gradientUnits="userSpaceOnUse"
       x1="704.07806"
       y1="109.45238"
       x2="-92.040497"
       y2="763.75372" />
    <linearGradient
       inkscape:collect="always"
       xlink:href="#linearGradient26"
       id="linearGradient9"
       gradientUnits="userSpaceOnUse"
       x1="704.07806"
       y1="109.45238"
       x2="-92.040497"
       y2="763.75372" />
    <linearGradient
       inkscape:collect="always"
       xlink:href="#linearGradient12"
       id="linearGradient11"
       gradientUnits="userSpaceOnUse"
       x1="704.07806"
       y1="109.45238"
       x2="-92.040497"
       y2="763.75372" />
    <linearGradient
       inkscape:collect="always"
       xlink:href="#linearGradient6"
       id="linearGradient14"
       gradientUnits="userSpaceOnUse"
       x1="886.70288"
       y1="212.28899"
       x2="-378.51984"
       y2="561.13513" />
    <linearGradient
       inkscape:collect="always"
       xlink:href="#linearGradient29"
       id="linearGradient30"
       x1="165.36966"
       y1="137.86864"
       x2="311.92932"
       y2="228.35895"
       gradientUnits="userSpaceOnUse" />
  </defs>
  <sodipodi:namedview
     id="namedview1"
     pagecolor="#ffffff"
     bordercolor="#000000"
     borderopacity="0.25"
     inkscape:showpageshadow="2"
     inkscape:pageopacity="0.0"
     inkscape:pagecheckerboard="0"
     inkscape:deskcolor="#d1d1d1"
     inkscape:zoom="0.92395833"
     inkscape:cx="432.91995"
     inkscape:cy="327.39572"
     inkscape:window-width="1920"
     inkscape:window-height="1017"
     inkscape:window-x="1912"
     inkscape:window-y="-8"
     inkscape:window-maximized="1"
     inkscape:current-layer="svg1" />
  <path
     style="fill:url(#linearGradient11);stroke:none;stroke-width:1.5;stroke-opacity:1"
     d="m 319,691.42003 c -1.925,-0.21285 -8.225,-0.87836 -14,-1.47892 -5.775,-0.60055 -18.375,-2.39074 -28,-3.9782 -9.625,-1.58746 -21.325,-3.38339 -26,-3.99096 -52.28452,-6.79497 -105.89294,-32.4048 -144.35334,-68.9605 C 95.180626,602.11325 65.389641,570.03333 56.488987,559 37.335556,535.25724 17.025648,497.06006 10.974424,473.4 8.3267067,463.04752 4.3213486,434.41817 2.922794,415.84886 1.3650845,395.16636 2.2538625,335.67327 4.414454,316 12.785147,239.78063 30.653158,184.55118 62.496755,136.46948 74.439539,118.43668 87.850987,102.54744 113.19886,76.400063 119.6591,69.736057 123.19345,65.28273 123.5881,63.309482 124.16045,60.447768 126.64206,59.17014 181.15074,33.674119 234.19527,8.8629344 238.2661,7.1277975 240.30762,8.4592947 c 1.20581,0.7864418 4.33104,1.9069933 6.94497,2.4901153 4.06751,0.907392 6.95046,0.618789 20,-2.0021353 63.7305,-12.7999072 122.05332,-9.40970249 182.20214,10.5910953 27.87242,9.268189 71.46732,36.858567 109.18445,69.100755 16.29855,13.932675 42.69958,41.124325 55.69309,57.360875 12.50022,15.62015 38.79725,54.33758 44.23172,65.1229 6.41307,12.72743 13.2897,31.34132 15.35118,41.55309 13.5015,66.88095 7.22518,152.43868 -16.16249,220.32401 -17.39104,50.47949 -43.12337,91.62581 -79.47919,127.08824 -16.78085,16.36849 -26.37781,24.16093 -45.27835,36.76466 -42.02911,28.02689 -89.38683,45.20871 -145.49514,52.78699 -10.34388,1.3971 -60.23778,2.69372 -68.5,1.78014 z"
     id="path10"
     transform="matrix(-0.13167229,0.09997651,-0.09997651,-0.13167229,394.37282,99.872481)" />
  <path
     fill="#555555"
     stroke="None"
     d="m 215.07,76.72 c 1.52,-0.36 3.04,-0.69 4.56,-1 1.53,-0.29 3.07,-0.55 4.61,-0.79 1.54,-0.22 3.08,-0.42 4.63,-0.6 1.55,-0.15 3.1,-0.28 4.65,-0.38 1.56,-0.09 3.11,-0.15 4.67,-0.18 1.56,-0.02 3.11,-0.01 4.67,0.02 1.56,0.05 3.11,0.13 4.67,0.23 1.55,0.12 3.1,0.26 4.65,0.43 1.54,0.19 3.09,0.4 4.62,0.64 1.54,0.25 3.07,0.53 4.6,0.84 1.52,0.32 3.04,0.67 4.55,1.04 1.51,0.39 3.01,0.8 4.51,1.24 1.48,0.46 2.97,0.93 4.44,1.44 1.47,0.52 2.93,1.06 4.42,1.51 1.5,0.47 2.98,0.96 4.46,1.49 1.47,0.54 2.93,1.12 4.38,1.72 1.45,0.63 2.88,1.28 4.3,1.96 1.41,0.71 2.81,1.44 4.19,2.2 1.37,0.78 2.73,1.59 4.07,2.42 1.33,0.86 2.64,1.74 3.93,2.65 1.28,0.93 2.54,1.89 3.79,2.87 1.22,1 2.43,2.02 3.62,3.07 1.17,1.07 2.32,2.15 3.45,3.26 1.11,1.13 2.2,2.28 3.26,3.44 1.05,1.19 2.08,2.39 3.08,3.61 0.99,1.24 1.95,2.49 2.89,3.76 0.92,1.28 1.82,2.58 2.69,3.89 0.86,1.32 1.69,2.66 2.5,4.01 0.79,1.36 1.55,2.74 2.3,4.12 0.72,1.39 1.42,2.8 2.01,4.26 0.56,1.47 1.11,2.94 1.64,4.41 0.51,1.48 1,2.96 1.55,4.41 0.54,1.46 1.07,2.92 1.57,4.38 0.48,1.48 0.94,2.95 1.39,4.43 0.43,1.49 0.98,2.94 1.51,4.4 0.51,1.46 1,2.94 1.47,4.43 0.44,1.49 0.86,2.99 1.25,4.5 0.37,1.52 0.72,3.05 1.04,4.58 0.29,1.54 0.56,3.08 0.8,4.63 0.22,1.56 0.41,3.12 0.57,4.68 0.13,1.57 0.24,3.14 0.32,4.71 0.05,1.57 0.07,3.15 0.07,4.72 -0.03,1.58 -0.09,3.15 -0.18,4.73 -0.12,1.57 -0.15,3.16 -0.35,4.72 -0.22,1.57 -0.47,3.13 -0.74,4.68 -0.31,1.55 -0.64,3.09 -0.99,4.63 -0.38,1.53 -0.79,3.05 -1.22,4.57 -0.46,1.51 -0.94,3.01 -1.45,4.5 -0.53,1.48 -1.08,2.95 -1.66,4.42 -0.59,1.45 -1.22,2.89 -1.86,4.32 -0.66,1.43 -1.35,2.84 -2.06,4.24 -0.72,1.38 -1.47,2.76 -2.24,4.12 -0.79,1.35 -1.59,2.69 -2.42,4.02 -0.84,1.31 -1.7,2.62 -2.58,3.9 -0.89,1.28 -1.8,2.54 -2.73,3.79 -0.95,1.24 -1.91,2.46 -2.88,3.67 -0.99,1.19 -2,2.37 -3.02,3.54 -1.04,1.15 -2.09,2.29 -3.16,3.41 -1.08,1.11 -2.17,2.21 -3.28,3.29 -1.12,1.07 -2.26,2.12 -3.4,3.15 -1.17,1.03 -2.34,2.03 -3.53,3.02 -1.19,0.98 -2.41,1.94 -3.63,2.88 -1.24,0.93 -2.48,1.84 -3.74,2.74 -1.27,0.88 -2.56,1.74 -3.85,2.58 -1.3,0.83 -2.62,1.64 -3.95,2.44 -1.34,0.77 -2.68,1.53 -4.04,2.27 -1.37,0.72 -2.75,1.42 -4.14,2.11 -1.4,0.66 -2.81,1.31 -4.23,1.93 -1.42,0.61 -2.86,1.19 -4.3,1.76 -1.45,0.55 -2.92,1.07 -4.38,1.57 -1.48,0.49 -2.96,0.95 -4.46,1.39 -1.49,0.41 -3,0.81 -4.51,1.18 -1.51,0.35 -3.03,0.68 -4.56,0.98 -1.53,0.29 -3.07,0.55 -4.61,0.78 -1.54,0.21 -3.09,0.4 -4.64,0.57 -1.56,0.14 -3.11,0.25 -4.67,0.35 -1.56,0.07 -3.12,0.11 -4.68,0.13 -1.56,0 -3.12,-0.03 -4.69,-0.08 -1.56,-0.08 -3.12,-0.18 -4.67,-0.31 -1.56,-0.15 -3.11,-0.32 -4.66,-0.52 -1.55,-0.22 -3.09,-0.47 -4.63,-0.74 -1.54,-0.29 -3.07,-0.61 -4.56,-1.11 -1.48,-0.52 -2.95,-1.06 -4.41,-1.61 -1.45,-0.57 -2.89,-1.16 -4.33,-1.76 -1.42,-0.62 -2.83,-1.26 -4.24,-1.91 -1.4,-0.66 -2.78,-1.34 -4.16,-2.03 -1.37,-0.7 -2.73,-1.42 -4.08,-2.15 -1.34,-0.74 -2.68,-1.5 -4,-2.26 -1.32,-0.78 -2.62,-1.58 -3.92,-2.38 -1.29,-0.82 -2.57,-1.65 -3.85,-2.49 -1.26,-0.86 -2.51,-1.73 -3.76,-2.61 -1.24,-0.89 -2.47,-1.8 -3.68,-2.71 -1.21,-0.94 -2.41,-1.88 -3.6,-2.84 -1.18,-0.97 -2.35,-1.96 -3.51,-2.96 -1.14,-1.01 -2.28,-2.04 -3.4,-3.08 -1.12,-1.06 -2.22,-2.13 -3.18,-3.33 -0.96,-1.2 -1.9,-2.41 -2.82,-3.63 -0.92,-1.23 -1.82,-2.47 -2.7,-3.71 -0.88,-1.25 -1.74,-2.52 -2.59,-3.78 -0.84,-1.28 -1.66,-2.57 -2.47,-3.86 -0.79,-1.3 -1.58,-2.61 -2.35,-3.93 -0.75,-1.33 -1.49,-2.66 -2.22,-4.01 -0.71,-1.35 -1.41,-2.71 -2.09,-4.08 -0.67,-1.38 -1.32,-2.77 -1.95,-4.17 -0.76,-1.35 -1.49,-2.72 -2.21,-4.1 -0.7,-1.39 -1.37,-2.8 -2.03,-4.22 -0.63,-1.43 -1.23,-2.88 -1.81,-4.34 -0.56,-1.47 -1.09,-2.96 -1.59,-4.45 -0.47,-1.51 -0.92,-3.03 -1.33,-4.55 -0.39,-1.54 -0.75,-3.09 -1.07,-4.64 -0.3,-1.56 -0.56,-3.13 -0.79,-4.7 -0.2,-1.58 -0.37,-3.16 -0.51,-4.75 -0.1,-1.59 -0.17,-3.19 -0.21,-4.78 -0.01,-1.6 0.02,-3.19 0.08,-4.79 0.09,-1.59 0.22,-3.18 0.37,-4.77 0.19,-1.59 0.41,-3.17 0.66,-4.74 0.28,-1.58 0.59,-3.14 0.93,-4.7 0.37,-1.55 0.77,-3.09 1.2,-4.63 0.46,-1.53 0.94,-3.04 1.45,-4.55 0.54,-1.5 1.1,-2.98 1.69,-4.46 0.61,-1.46 1.25,-2.91 1.91,-4.35 0.68,-1.43 1.39,-2.85 2.11,-4.25 0.75,-1.39 1.52,-2.77 2.31,-4.13 0.81,-1.35 1.63,-2.69 2.48,-4.01 0.86,-1.31 1.74,-2.6 2.64,-3.89 0.91,-1.27 1.84,-2.52 2.78,-3.76 0.96,-1.23 1.94,-2.44 2.93,-3.64 1,-1.19 2.01,-2.36 3.04,-3.52 1.04,-1.15 2.1,-2.28 3.17,-3.4 1.07,-1.1 2.17,-2.19 3.27,-3.27 1.11,-1.07 2.24,-2.12 3.38,-3.15 1.23,-0.94 2.47,-1.86 3.71,-2.77 1.25,-0.9 2.5,-1.78 3.76,-2.65 a 4.1628176,4.1628176 0 0 1 5.19,6.51 c -1.02,0.97 -2.01,1.97 -2.99,2.98 -0.95,1.04 -1.88,2.09 -2.79,3.16 -0.97,1 -1.92,2.01 -2.85,3.04 -0.92,1.05 -1.81,2.12 -2.68,3.2 -0.86,1.09 -1.69,2.2 -2.5,3.33 -0.8,1.13 -1.57,2.28 -2.32,3.45 -0.73,1.17 -1.44,2.35 -2.13,3.55 -0.67,1.21 -1.32,2.42 -1.95,3.65 -0.6,1.23 -1.19,2.47 -1.76,3.72 -0.55,1.25 -1.07,2.52 -1.58,3.79 -0.49,1.27 -0.96,2.55 -1.41,3.83 -0.44,1.29 -0.85,2.58 -1.25,3.88 -0.38,1.3 -0.74,2.6 -1.09,3.91 -0.33,1.31 -0.65,2.62 -0.95,3.93 -0.28,1.31 -0.55,2.63 -0.81,3.94 -0.24,1.32 -0.47,2.64 -0.69,3.96 -0.2,1.32 -0.4,2.65 -0.58,3.97 -0.16,1.32 -0.32,2.65 -0.47,3.97 -0.13,1.33 -0.25,2.66 -0.37,3.99 -0.1,1.33 -0.19,2.66 -0.27,4 -0.08,1.33 -0.14,2.67 -0.19,4.01 -0.04,1.34 -0.07,2.69 -0.09,4.03 0,1.35 0,2.7 0.01,4.06 0.03,1.35 0.07,2.71 0.12,4.07 0.06,1.37 0.14,2.74 0.23,4.1 0.11,1.38 0.23,2.75 0.36,4.13 0.15,1.37 0.32,2.75 0.51,4.13 0.2,1.39 0.42,2.77 0.66,4.15 0.26,1.38 0.54,2.77 0.85,4.15 0.46,1.32 0.95,2.63 1.46,3.94 0.54,1.29 1.1,2.58 1.68,3.85 0.61,1.27 1.24,2.52 1.89,3.77 0.68,1.23 1.38,2.44 2.1,3.65 0.75,1.19 1.52,2.36 2.32,3.52 0.81,1.14 1.65,2.27 2.51,3.38 0.88,1.09 1.78,2.17 2.71,3.22 0.94,1.04 1.9,2.05 2.89,3.05 1,0.98 1.9,2.05 2.82,3.11 0.93,1.04 1.89,2.06 2.86,3.07 1,0.99 2.01,1.97 3.04,2.92 1.04,0.94 2.11,1.85 3.19,2.75 1.1,0.87 2.21,1.73 3.35,2.56 1.14,0.81 2.31,1.6 3.49,2.36 1.19,0.74 2.4,1.46 3.62,2.16 1.23,0.66 2.48,1.31 3.74,1.93 1.27,0.59 2.55,1.16 3.85,1.7 1.3,0.51 2.61,1 3.93,1.47 1.33,0.44 2.66,0.85 4,1.23 1.35,0.36 2.7,0.7 4.06,1 1.36,0.29 2.72,0.54 4.09,0.78 1.37,0.2 2.74,0.39 4.11,0.55 1.37,0.13 2.71,0.41 4.05,0.67 1.35,0.24 2.7,0.46 4.05,0.67 1.36,0.18 2.71,0.35 4.07,0.5 1.37,0.13 2.73,0.24 4.09,0.34 1.37,0.07 2.74,0.13 4.11,0.16 1.37,0.02 2.74,0.02 4.11,0 1.37,-0.03 2.74,-0.09 4.11,-0.16 1.37,-0.1 2.73,-0.21 4.1,-0.34 1.36,-0.16 2.73,-0.33 4.09,-0.52 1.36,-0.21 2.71,-0.43 4.07,-0.68 1.35,-0.27 2.69,-0.56 4.03,-0.87 1.34,-0.32 2.68,-0.67 4.01,-1.03 1.32,-0.39 2.64,-0.8 3.95,-1.22 1.31,-0.45 2.61,-0.91 3.9,-1.4 1.29,-0.5 2.57,-1.03 3.84,-1.57 1.26,-0.57 2.51,-1.15 3.76,-1.76 1.23,-0.62 2.46,-1.27 3.67,-1.93 1.21,-0.69 2.4,-1.39 3.58,-2.11 1.17,-0.74 2.33,-1.5 3.48,-2.28 1.13,-0.8 2.25,-1.62 3.35,-2.45 1.1,-0.85 2.17,-1.73 3.24,-2.61 1.04,-0.91 2.08,-1.83 3.09,-2.77 1,-0.96 1.99,-1.93 2.96,-2.92 0.95,-1.01 1.88,-2.03 2.8,-3.06 0.9,-1.05 1.78,-2.12 2.64,-3.2 0.85,-1.09 1.68,-2.19 2.48,-3.31 0.79,-1.13 1.57,-2.27 2.32,-3.43 0.73,-1.16 1.45,-2.34 2.14,-3.53 0.68,-1.19 1.34,-2.4 1.98,-3.61 0.62,-1.23 1.22,-2.46 1.8,-3.7 0.56,-1.25 1.11,-2.5 1.63,-3.76 0.51,-1.27 1,-2.55 1.47,-3.83 0.45,-1.28 0.89,-2.57 1.3,-3.87 0.4,-1.3 0.78,-2.61 1.15,-3.92 0.35,-1.31 0.68,-2.62 0.99,-3.94 0.3,-1.33 0.58,-2.65 0.84,-3.98 0.25,-1.33 0.48,-2.67 0.7,-4 0.2,-1.34 0.38,-2.68 0.55,-4.02 0.16,-1.34 0.43,-2.67 0.58,-4.02 0.13,-1.35 0.25,-2.7 0.35,-4.05 0.09,-1.35 0.16,-2.71 0.22,-4.07 0.04,-1.35 0.07,-2.71 0.08,-4.08 0,-1.36 -0.02,-2.72 -0.06,-4.09 -0.05,-1.37 -0.12,-2.73 -0.2,-4.1 -0.11,-1.37 -0.22,-2.74 -0.36,-4.11 -0.15,-1.36 -0.33,-2.73 -0.52,-4.1 -0.21,-1.37 -0.43,-2.73 -0.68,-4.09 -0.27,-1.37 -0.55,-2.72 -1.01,-4.03 -0.48,-1.3 -0.98,-2.59 -1.5,-3.88 -0.54,-1.27 -1.1,-2.53 -1.69,-3.78 -0.6,-1.25 -1.31,-2.44 -2.05,-3.61 -0.75,-1.16 -1.52,-2.31 -2.31,-3.44 -0.81,-1.12 -1.54,-2.27 -2.29,-3.41 -0.76,-1.13 -1.54,-2.25 -2.33,-3.36 -0.81,-1.09 -1.63,-2.18 -2.46,-3.25 -0.85,-1.06 -1.7,-2.11 -2.58,-3.14 -0.88,-1.03 -1.78,-2.04 -2.68,-3.05 -0.92,-0.99 -1.85,-1.97 -2.79,-2.94 -0.95,-0.96 -1.91,-1.9 -2.88,-2.84 -0.98,-0.93 -1.97,-1.84 -2.97,-2.75 -1.01,-0.89 -2.03,-1.77 -3.06,-2.65 -1.03,-0.86 -2.08,-1.71 -3.14,-2.55 -1.06,-0.83 -2.13,-1.65 -3.22,-2.46 -1.09,-0.8 -2.19,-1.59 -3.3,-2.37 -1.12,-0.77 -2.24,-1.52 -3.38,-2.27 -1.15,-0.73 -2.3,-1.45 -3.47,-2.16 -1.17,-0.7 -2.36,-1.39 -3.55,-2.06 -1.21,-0.66 -2.42,-1.31 -3.64,-1.94 -1.23,-0.62 -2.52,-1.1 -3.82,-1.56 -1.3,-0.44 -2.6,-0.86 -3.92,-1.27 -1.32,-0.38 -2.64,-0.74 -3.97,-1.09 -1.34,-0.33 -2.67,-0.63 -4.02,-0.92 -1.35,-0.27 -2.7,-0.51 -4.05,-0.74 -1.36,-0.21 -2.72,-0.39 -4.09,-0.56 -1.36,-0.15 -2.73,-0.28 -4.1,-0.38 -1.37,-0.09 -2.74,-0.16 -4.11,-0.21 -1.38,-0.02 -2.75,-0.03 -4.13,-0.02 -1.37,0.04 -2.74,0.09 -4.11,0.16 -1.37,0.1 -2.74,0.21 -4.11,0.35 -1.37,0.15 -2.73,0.32 -4.09,0.52 -1.36,0.21 -2.71,0.45 -4.06,0.7 -1.35,0.27 -2.69,0.56 -4.03,0.88 a 6.2491479,6.2491479 0 0 1 -2.93,-12.15 z"
     id="path11"
     style="fill:#424242;fill-opacity:1"
     transform="matrix(-0.47696604,0.36215214,-0.36215214,-0.47696604,494.67307,86.985551)" />
  <path
     style="fill:url(#linearGradient14);stroke:none;stroke-width:1.5;stroke-opacity:1"
     d="m 319,691.42003 c -1.925,-0.21285 -8.225,-0.87836 -14,-1.47892 -5.775,-0.60055 -18.375,-2.39074 -28,-3.9782 -9.625,-1.58746 -21.325,-3.38339 -26,-3.99096 -52.28452,-6.79497 -105.89294,-32.4048 -144.35334,-68.9605 C 95.180626,602.11325 65.389641,570.03333 56.488987,559 37.335556,535.25724 17.025648,497.06006 10.974424,473.4 8.3267067,463.04752 4.3213486,434.41817 2.922794,415.84886 1.3650845,395.16636 2.2538625,335.67327 4.414454,316 12.785147,239.78063 30.653158,184.55118 62.496755,136.46948 74.439539,118.43668 87.850987,102.54744 113.19886,76.400063 119.6591,69.736057 123.19345,65.28273 123.5881,63.309482 124.16045,60.447768 126.64206,59.17014 181.15074,33.674119 234.19527,8.8629344 238.2661,7.1277975 240.30762,8.4592947 c 1.20581,0.7864418 4.33104,1.9069933 6.94497,2.4901153 4.06751,0.907392 6.95046,0.618789 20,-2.0021353 63.7305,-12.7999072 122.05332,-9.40970249 182.20214,10.5910953 27.87242,9.268189 71.46732,36.858567 109.18445,69.100755 16.29855,13.932675 42.69958,41.124325 55.69309,57.360875 12.50022,15.62015 38.79725,54.33758 44.23172,65.1229 6.41307,12.72743 13.2897,31.34132 15.35118,41.55309 13.5015,66.88095 7.22518,152.43868 -16.16249,220.32401 -17.39104,50.47949 -43.12337,91.62581 -79.47919,127.08824 -16.78085,16.36849 -26.37781,24.16093 -45.27835,36.76466 -42.02911,28.02689 -89.38683,45.20871 -145.49514,52.78699 -10.34388,1.3971 -60.23778,2.69372 -68.5,1.78014 z"
     id="path4"
     transform="matrix(0.0624906,0.15306149,-0.15306149,0.0624906,196.26258,184.15838)" />
  <path
     fill="#555555"
     stroke="None"
     d="m 215.07,76.72 c 1.52,-0.36 3.04,-0.69 4.56,-1 1.53,-0.29 3.07,-0.55 4.61,-0.79 1.54,-0.22 3.08,-0.42 4.63,-0.6 1.55,-0.15 3.1,-0.28 4.65,-0.38 1.56,-0.09 3.11,-0.15 4.67,-0.18 1.56,-0.02 3.11,-0.01 4.67,0.02 1.56,0.05 3.11,0.13 4.67,0.23 1.55,0.12 3.1,0.26 4.65,0.43 1.54,0.19 3.09,0.4 4.62,0.64 1.54,0.25 3.07,0.53 4.6,0.84 1.52,0.32 3.04,0.67 4.55,1.04 1.51,0.39 3.01,0.8 4.51,1.24 1.48,0.46 2.97,0.93 4.44,1.44 1.47,0.52 2.93,1.06 4.42,1.51 1.5,0.47 2.98,0.96 4.46,1.49 1.47,0.54 2.93,1.12 4.38,1.72 1.45,0.63 2.88,1.28 4.3,1.96 1.41,0.71 2.81,1.44 4.19,2.2 1.37,0.78 2.73,1.59 4.07,2.42 1.33,0.86 2.64,1.74 3.93,2.65 1.28,0.93 2.54,1.89 3.79,2.87 1.22,1 2.43,2.02 3.62,3.07 1.17,1.07 2.32,2.15 3.45,3.26 1.11,1.13 2.2,2.28 3.26,3.44 1.05,1.19 2.08,2.39 3.08,3.61 0.99,1.24 1.95,2.49 2.89,3.76 0.92,1.28 1.82,2.58 2.69,3.89 0.86,1.32 1.69,2.66 2.5,4.01 0.79,1.36 1.55,2.74 2.3,4.12 0.72,1.39 1.42,2.8 2.01,4.26 0.56,1.47 1.11,2.94 1.64,4.41 0.51,1.48 1,2.96 1.55,4.41 0.54,1.46 1.07,2.92 1.57,4.38 0.48,1.48 0.94,2.95 1.39,4.43 0.43,1.49 0.98,2.94 1.51,4.4 0.51,1.46 1,2.94 1.47,4.43 0.44,1.49 0.86,2.99 1.25,4.5 0.37,1.52 0.72,3.05 1.04,4.58 0.29,1.54 0.56,3.08 0.8,4.63 0.22,1.56 0.41,3.12 0.57,4.68 0.13,1.57 0.24,3.14 0.32,4.71 0.05,1.57 0.07,3.15 0.07,4.72 -0.03,1.58 -0.09,3.15 -0.18,4.73 -0.12,1.57 -0.15,3.16 -0.35,4.72 -0.22,1.57 -0.47,3.13 -0.74,4.68 -0.31,1.55 -0.64,3.09 -0.99,4.63 -0.38,1.53 -0.79,3.05 -1.22,4.57 -0.46,1.51 -0.94,3.01 -1.45,4.5 -0.53,1.48 -1.08,2.95 -1.66,4.42 -0.59,1.45 -1.22,2.89 -1.86,4.32 -0.66,1.43 -1.35,2.84 -2.06,4.24 -0.72,1.38 -1.47,2.76 -2.24,4.12 -0.79,1.35 -1.59,2.69 -2.42,4.02 -0.84,1.31 -1.7,2.62 -2.58,3.9 -0.89,1.28 -1.8,2.54 -2.73,3.79 -0.95,1.24 -1.91,2.46 -2.88,3.67 -0.99,1.19 -2,2.37 -3.02,3.54 -1.04,1.15 -2.09,2.29 -3.16,3.41 -1.08,1.11 -2.17,2.21 -3.28,3.29 -1.12,1.07 -2.26,2.12 -3.4,3.15 -1.17,1.03 -2.34,2.03 -3.53,3.02 -1.19,0.98 -2.41,1.94 -3.63,2.88 -1.24,0.93 -2.48,1.84 -3.74,2.74 -1.27,0.88 -2.56,1.74 -3.85,2.58 -1.3,0.83 -2.62,1.64 -3.95,2.44 -1.34,0.77 -2.68,1.53 -4.04,2.27 -1.37,0.72 -2.75,1.42 -4.14,2.11 -1.4,0.66 -2.81,1.31 -4.23,1.93 -1.42,0.61 -2.86,1.19 -4.3,1.76 -1.45,0.55 -2.92,1.07 -4.38,1.57 -1.48,0.49 -2.96,0.95 -4.46,1.39 -1.49,0.41 -3,0.81 -4.51,1.18 -1.51,0.35 -3.03,0.68 -4.56,0.98 -1.53,0.29 -3.07,0.55 -4.61,0.78 -1.54,0.21 -3.09,0.4 -4.64,0.57 -1.56,0.14 -3.11,0.25 -4.67,0.35 -1.56,0.07 -3.12,0.11 -4.68,0.13 -1.56,0 -3.12,-0.03 -4.69,-0.08 -1.56,-0.08 -3.12,-0.18 -4.67,-0.31 -1.56,-0.15 -3.11,-0.32 -4.66,-0.52 -1.55,-0.22 -3.09,-0.47 -4.63,-0.74 -1.54,-0.29 -3.07,-0.61 -4.56,-1.11 -1.48,-0.52 -2.95,-1.06 -4.41,-1.61 -1.45,-0.57 -2.89,-1.16 -4.33,-1.76 -1.42,-0.62 -2.83,-1.26 -4.24,-1.91 -1.4,-0.66 -2.78,-1.34 -4.16,-2.03 -1.37,-0.7 -2.73,-1.42 -4.08,-2.15 -1.34,-0.74 -2.68,-1.5 -4,-2.26 -1.32,-0.78 -2.62,-1.58 -3.92,-2.38 -1.29,-0.82 -2.57,-1.65 -3.85,-2.49 -1.26,-0.86 -2.51,-1.73 -3.76,-2.61 -1.24,-0.89 -2.47,-1.8 -3.68,-2.71 -1.21,-0.94 -2.41,-1.88 -3.6,-2.84 -1.18,-0.97 -2.35,-1.96 -3.51,-2.96 -1.14,-1.01 -2.28,-2.04 -3.4,-3.08 -1.12,-1.06 -2.22,-2.13 -3.18,-3.33 -0.96,-1.2 -1.9,-2.41 -2.82,-3.63 -0.92,-1.23 -1.82,-2.47 -2.7,-3.71 -0.88,-1.25 -1.74,-2.52 -2.59,-3.78 -0.84,-1.28 -1.66,-2.57 -2.47,-3.86 -0.79,-1.3 -1.58,-2.61 -2.35,-3.93 -0.75,-1.33 -1.49,-2.66 -2.22,-4.01 -0.71,-1.35 -1.41,-2.71 -2.09,-4.08 -0.67,-1.38 -1.32,-2.77 -1.95,-4.17 -0.76,-1.35 -1.49,-2.72 -2.21,-4.1 -0.7,-1.39 -1.37,-2.8 -2.03,-4.22 -0.63,-1.43 -1.23,-2.88 -1.81,-4.34 -0.56,-1.47 -1.09,-2.96 -1.59,-4.45 -0.47,-1.51 -0.92,-3.03 -1.33,-4.55 -0.39,-1.54 -0.75,-3.09 -1.07,-4.64 -0.3,-1.56 -0.56,-3.13 -0.79,-4.7 -0.2,-1.58 -0.37,-3.16 -0.51,-4.75 -0.1,-1.59 -0.17,-3.19 -0.21,-4.78 -0.01,-1.6 0.02,-3.19 0.08,-4.79 0.09,-1.59 0.22,-3.18 0.37,-4.77 0.19,-1.59 0.41,-3.17 0.66,-4.74 0.28,-1.58 0.59,-3.14 0.93,-4.7 0.37,-1.55 0.77,-3.09 1.2,-4.63 0.46,-1.53 0.94,-3.04 1.45,-4.55 0.54,-1.5 1.1,-2.98 1.69,-4.46 0.61,-1.46 1.25,-2.91 1.91,-4.35 0.68,-1.43 1.39,-2.85 2.11,-4.25 0.75,-1.39 1.52,-2.77 2.31,-4.13 0.81,-1.35 1.63,-2.69 2.48,-4.01 0.86,-1.31 1.74,-2.6 2.64,-3.89 0.91,-1.27 1.84,-2.52 2.78,-3.76 0.96,-1.23 1.94,-2.44 2.93,-3.64 1,-1.19 2.01,-2.36 3.04,-3.52 1.04,-1.15 2.1,-2.28 3.17,-3.4 1.07,-1.1 2.17,-2.19 3.27,-3.27 1.11,-1.07 2.24,-2.12 3.38,-3.15 1.23,-0.94 2.47,-1.86 3.71,-2.77 1.25,-0.9 2.5,-1.78 3.76,-2.65 a 4.1628176,4.1628176 0 0 1 5.19,6.51 c -1.02,0.97 -2.01,1.97 -2.99,2.98 -0.95,1.04 -1.88,2.09 -2.79,3.16 -0.97,1 -1.92,2.01 -2.85,3.04 -0.92,1.05 -1.81,2.12 -2.68,3.2 -0.86,1.09 -1.69,2.2 -2.5,3.33 -0.8,1.13 -1.57,2.28 -2.32,3.45 -0.73,1.17 -1.44,2.35 -2.13,3.55 -0.67,1.21 -1.32,2.42 -1.95,3.65 -0.6,1.23 -1.19,2.47 -1.76,3.72 -0.55,1.25 -1.07,2.52 -1.58,3.79 -0.49,1.27 -0.96,2.55 -1.41,3.83 -0.44,1.29 -0.85,2.58 -1.25,3.88 -0.38,1.3 -0.74,2.6 -1.09,3.91 -0.33,1.31 -0.65,2.62 -0.95,3.93 -0.28,1.31 -0.55,2.63 -0.81,3.94 -0.24,1.32 -0.47,2.64 -0.69,3.96 -0.2,1.32 -0.4,2.65 -0.58,3.97 -0.16,1.32 -0.32,2.65 -0.47,3.97 -0.13,1.33 -0.25,2.66 -0.37,3.99 -0.1,1.33 -0.19,2.66 -0.27,4 -0.08,1.33 -0.14,2.67 -0.19,4.01 -0.04,1.34 -0.07,2.69 -0.09,4.03 0,1.35 0,2.7 0.01,4.06 0.03,1.35 0.07,2.71 0.12,4.07 0.06,1.37 0.14,2.74 0.23,4.1 0.11,1.38 0.23,2.75 0.36,4.13 0.15,1.37 0.32,2.75 0.51,4.13 0.2,1.39 0.42,2.77 0.66,4.15 0.26,1.38 0.54,2.77 0.85,4.15 0.46,1.32 0.95,2.63 1.46,3.94 0.54,1.29 1.1,2.58 1.68,3.85 0.61,1.27 1.24,2.52 1.89,3.77 0.68,1.23 1.38,2.44 2.1,3.65 0.75,1.19 1.52,2.36 2.32,3.52 0.81,1.14 1.65,2.27 2.51,3.38 0.88,1.09 1.78,2.17 2.71,3.22 0.94,1.04 1.9,2.05 2.89,3.05 1,0.98 1.9,2.05 2.82,3.11 0.93,1.04 1.89,2.06 2.86,3.07 1,0.99 2.01,1.97 3.04,2.92 1.04,0.94 2.11,1.85 3.19,2.75 1.1,0.87 2.21,1.73 3.35,2.56 1.14,0.81 2.31,1.6 3.49,2.36 1.19,0.74 2.4,1.46 3.62,2.16 1.23,0.66 2.48,1.31 3.74,1.93 1.27,0.59 2.55,1.16 3.85,1.7 1.3,0.51 2.61,1 3.93,1.47 1.33,0.44 2.66,0.85 4,1.23 1.35,0.36 2.7,0.7 4.06,1 1.36,0.29 2.72,0.54 4.09,0.78 1.37,0.2 2.74,0.39 4.11,0.55 1.37,0.13 2.71,0.41 4.05,0.67 1.35,0.24 2.7,0.46 4.05,0.67 1.36,0.18 2.71,0.35 4.07,0.5 1.37,0.13 2.73,0.24 4.09,0.34 1.37,0.07 2.74,0.13 4.11,0.16 1.37,0.02 2.74,0.02 4.11,0 1.37,-0.03 2.74,-0.09 4.11,-0.16 1.37,-0.1 2.73,-0.21 4.1,-0.34 1.36,-0.16 2.73,-0.33 4.09,-0.52 1.36,-0.21 2.71,-0.43 4.07,-0.68 1.35,-0.27 2.69,-0.56 4.03,-0.87 1.34,-0.32 2.68,-0.67 4.01,-1.03 1.32,-0.39 2.64,-0.8 3.95,-1.22 1.31,-0.45 2.61,-0.91 3.9,-1.4 1.29,-0.5 2.57,-1.03 3.84,-1.57 1.26,-0.57 2.51,-1.15 3.76,-1.76 1.23,-0.62 2.46,-1.27 3.67,-1.93 1.21,-0.69 2.4,-1.39 3.58,-2.11 1.17,-0.74 2.33,-1.5 3.48,-2.28 1.13,-0.8 2.25,-1.62 3.35,-2.45 1.1,-0.85 2.17,-1.73 3.24,-2.61 1.04,-0.91 2.08,-1.83 3.09,-2.77 1,-0.96 1.99,-1.93 2.96,-2.92 0.95,-1.01 1.88,-2.03 2.8,-3.06 0.9,-1.05 1.78,-2.12 2.64,-3.2 0.85,-1.09 1.68,-2.19 2.48,-3.31 0.79,-1.13 1.57,-2.27 2.32,-3.43 0.73,-1.16 1.45,-2.34 2.14,-3.53 0.68,-1.19 1.34,-2.4 1.98,-3.61 0.62,-1.23 1.22,-2.46 1.8,-3.7 0.56,-1.25 1.11,-2.5 1.63,-3.76 0.51,-1.27 1,-2.55 1.47,-3.83 0.45,-1.28 0.89,-2.57 1.3,-3.87 0.4,-1.3 0.78,-2.61 1.15,-3.92 0.35,-1.31 0.68,-2.62 0.99,-3.94 0.3,-1.33 0.58,-2.65 0.84,-3.98 0.25,-1.33 0.48,-2.67 0.7,-4 0.2,-1.34 0.38,-2.68 0.55,-4.02 0.16,-1.34 0.43,-2.67 0.58,-4.02 0.13,-1.35 0.25,-2.7 0.35,-4.05 0.09,-1.35 0.16,-2.71 0.22,-4.07 0.04,-1.35 0.07,-2.71 0.08,-4.08 0,-1.36 -0.02,-2.72 -0.06,-4.09 -0.05,-1.37 -0.12,-2.73 -0.2,-4.1 -0.11,-1.37 -0.22,-2.74 -0.36,-4.11 -0.15,-1.36 -0.33,-2.73 -0.52,-4.1 -0.21,-1.37 -0.43,-2.73 -0.68,-4.09 -0.27,-1.37 -0.55,-2.72 -1.01,-4.03 -0.48,-1.3 -0.98,-2.59 -1.5,-3.88 -0.54,-1.27 -1.1,-2.53 -1.69,-3.78 -0.6,-1.25 -1.31,-2.44 -2.05,-3.61 -0.75,-1.16 -1.52,-2.31 -2.31,-3.44 -0.81,-1.12 -1.54,-2.27 -2.29,-3.41 -0.76,-1.13 -1.54,-2.25 -2.33,-3.36 -0.81,-1.09 -1.63,-2.18 -2.46,-3.25 -0.85,-1.06 -1.7,-2.11 -2.58,-3.14 -0.88,-1.03 -1.78,-2.04 -2.68,-3.05 -0.92,-0.99 -1.85,-1.97 -2.79,-2.94 -0.95,-0.96 -1.91,-1.9 -2.88,-2.84 -0.98,-0.93 -1.97,-1.84 -2.97,-2.75 -1.01,-0.89 -2.03,-1.77 -3.06,-2.65 -1.03,-0.86 -2.08,-1.71 -3.14,-2.55 -1.06,-0.83 -2.13,-1.65 -3.22,-2.46 -1.09,-0.8 -2.19,-1.59 -3.3,-2.37 -1.12,-0.77 -2.24,-1.52 -3.38,-2.27 -1.15,-0.73 -2.3,-1.45 -3.47,-2.16 -1.17,-0.7 -2.36,-1.39 -3.55,-2.06 -1.21,-0.66 -2.42,-1.31 -3.64,-1.94 -1.23,-0.62 -2.52,-1.1 -3.82,-1.56 -1.3,-0.44 -2.6,-0.86 -3.92,-1.27 -1.32,-0.38 -2.64,-0.74 -3.97,-1.09 -1.34,-0.33 -2.67,-0.63 -4.02,-0.92 -1.35,-0.27 -2.7,-0.51 -4.05,-0.74 -1.36,-0.21 -2.72,-0.39 -4.09,-0.56 -1.36,-0.15 -2.73,-0.28 -4.1,-0.38 -1.37,-0.09 -2.74,-0.16 -4.11,-0.21 -1.38,-0.02 -2.75,-0.03 -4.13,-0.02 -1.37,0.04 -2.74,0.09 -4.11,0.16 -1.37,0.1 -2.74,0.21 -4.11,0.35 -1.37,0.15 -2.73,0.32 -4.09,0.52 -1.36,0.21 -2.71,0.45 -4.06,0.7 -1.35,0.27 -2.69,0.56 -4.03,0.88 a 6.2491479,6.2491479 0 0 1 -2.93,-12.15 z"
     id="path5"
     style="fill:#424242;fill-opacity:1"
     transform="matrix(0.22636422,0.5544457,-0.5544457,0.22636422,209.77438,83.940404)" />
  <circle
     style="fill:url(#linearGradient30);stroke:none;stroke-width:1.5;stroke-opacity:1"
     id="path28"
     cx="241.07001"
     cy="183.67238"
     r="97.193306"
     transform="matrix(1.0275591,0,0,1.0275591,-10.087518,-9.6536465)" />
  <path
     fill="#555555"
     stroke="None"
     d="m 215.07,76.72 c 1.52,-0.36 3.04,-0.69 4.56,-1 1.53,-0.29 3.07,-0.55 4.61,-0.79 1.54,-0.22 3.08,-0.42 4.63,-0.6 1.55,-0.15 3.1,-0.28 4.65,-0.38 1.56,-0.09 3.11,-0.15 4.67,-0.18 1.56,-0.02 3.11,-0.01 4.67,0.02 1.56,0.05 3.11,0.13 4.67,0.23 1.55,0.12 3.1,0.26 4.65,0.43 1.54,0.19 3.09,0.4 4.62,0.64 1.54,0.25 3.07,0.53 4.6,0.84 1.52,0.32 3.04,0.67 4.55,1.04 1.51,0.39 3.01,0.8 4.51,1.24 1.48,0.46 2.97,0.93 4.44,1.44 1.47,0.52 2.93,1.06 4.42,1.51 1.5,0.47 2.98,0.96 4.46,1.49 1.47,0.54 2.93,1.12 4.38,1.72 1.45,0.63 2.88,1.28 4.3,1.96 1.41,0.71 2.81,1.44 4.19,2.2 1.37,0.78 2.73,1.59 4.07,2.42 1.33,0.86 2.64,1.74 3.93,2.65 1.28,0.93 2.54,1.89 3.79,2.87 1.22,1 2.43,2.02 3.62,3.07 1.17,1.07 2.32,2.15 3.45,3.26 1.11,1.13 2.2,2.28 3.26,3.44 1.05,1.19 2.08,2.39 3.08,3.61 0.99,1.24 1.95,2.49 2.89,3.76 0.92,1.28 1.82,2.58 2.69,3.89 0.86,1.32 1.69,2.66 2.5,4.01 0.79,1.36 1.55,2.74 2.3,4.12 0.72,1.39 1.42,2.8 2.01,4.26 0.56,1.47 1.11,2.94 1.64,4.41 0.51,1.48 1,2.96 1.55,4.41 0.54,1.46 1.07,2.92 1.57,4.38 0.48,1.48 0.94,2.95 1.39,4.43 0.43,1.49 0.98,2.94 1.51,4.4 0.51,1.46 1,2.94 1.47,4.43 0.44,1.49 0.86,2.99 1.25,4.5 0.37,1.52 0.72,3.05 1.04,4.58 0.29,1.54 0.56,3.08 0.8,4.63 0.22,1.56 0.41,3.12 0.57,4.68 0.13,1.57 0.24,3.14 0.32,4.71 0.05,1.57 0.07,3.15 0.07,4.72 -0.03,1.58 -0.09,3.15 -0.18,4.73 -0.12,1.57 -0.15,3.16 -0.35,4.72 -0.22,1.57 -0.47,3.13 -0.74,4.68 -0.31,1.55 -0.64,3.09 -0.99,4.63 -0.38,1.53 -0.79,3.05 -1.22,4.57 -0.46,1.51 -0.94,3.01 -1.45,4.5 -0.53,1.48 -1.08,2.95 -1.66,4.42 -0.59,1.45 -1.22,2.89 -1.86,4.32 -0.66,1.43 -1.35,2.84 -2.06,4.24 -0.72,1.38 -1.47,2.76 -2.24,4.12 -0.79,1.35 -1.59,2.69 -2.42,4.02 -0.84,1.31 -1.7,2.62 -2.58,3.9 -0.89,1.28 -1.8,2.54 -2.73,3.79 -0.95,1.24 -1.91,2.46 -2.88,3.67 -0.99,1.19 -2,2.37 -3.02,3.54 -1.04,1.15 -2.09,2.29 -3.16,3.41 -1.08,1.11 -2.17,2.21 -3.28,3.29 -1.12,1.07 -2.26,2.12 -3.4,3.15 -1.17,1.03 -2.34,2.03 -3.53,3.02 -1.19,0.98 -2.41,1.94 -3.63,2.88 -1.24,0.93 -2.48,1.84 -3.74,2.74 -1.27,0.88 -2.56,1.74 -3.85,2.58 -1.3,0.83 -2.62,1.64 -3.95,2.44 -1.34,0.77 -2.68,1.53 -4.04,2.27 -1.37,0.72 -2.75,1.42 -4.14,2.11 -1.4,0.66 -2.81,1.31 -4.23,1.93 -1.42,0.61 -2.86,1.19 -4.3,1.76 -1.45,0.55 -2.92,1.07 -4.38,1.57 -1.48,0.49 -2.96,0.95 -4.46,1.39 -1.49,0.41 -3,0.81 -4.51,1.18 -1.51,0.35 -3.03,0.68 -4.56,0.98 -1.53,0.29 -3.07,0.55 -4.61,0.78 -1.54,0.21 -3.09,0.4 -4.64,0.57 -1.56,0.14 -3.11,0.25 -4.67,0.35 -1.56,0.07 -3.12,0.11 -4.68,0.13 -1.56,0 -3.12,-0.03 -4.69,-0.08 -1.56,-0.08 -3.12,-0.18 -4.67,-0.31 -1.56,-0.15 -3.11,-0.32 -4.66,-0.52 -1.55,-0.22 -3.09,-0.47 -4.63,-0.74 -1.54,-0.29 -3.07,-0.61 -4.56,-1.11 -1.48,-0.52 -2.95,-1.06 -4.41,-1.61 -1.45,-0.57 -2.89,-1.16 -4.33,-1.76 -1.42,-0.62 -2.83,-1.26 -4.24,-1.91 -1.4,-0.66 -2.78,-1.34 -4.16,-2.03 -1.37,-0.7 -2.73,-1.42 -4.08,-2.15 -1.34,-0.74 -2.68,-1.5 -4,-2.26 -1.32,-0.78 -2.62,-1.58 -3.92,-2.38 -1.29,-0.82 -2.57,-1.65 -3.85,-2.49 -1.26,-0.86 -2.51,-1.73 -3.76,-2.61 -1.24,-0.89 -2.47,-1.8 -3.68,-2.71 -1.21,-0.94 -2.41,-1.88 -3.6,-2.84 -1.18,-0.97 -2.35,-1.96 -3.51,-2.96 -1.14,-1.01 -2.28,-2.04 -3.4,-3.08 -1.12,-1.06 -2.22,-2.13 -3.18,-3.33 -0.96,-1.2 -1.9,-2.41 -2.82,-3.63 -0.92,-1.23 -1.82,-2.47 -2.7,-3.71 -0.88,-1.25 -1.74,-2.52 -2.59,-3.78 -0.84,-1.28 -1.66,-2.57 -2.47,-3.86 -0.79,-1.3 -1.58,-2.61 -2.35,-3.93 -0.75,-1.33 -1.49,-2.66 -2.22,-4.01 -0.71,-1.35 -1.41,-2.71 -2.09,-4.08 -0.67,-1.38 -1.32,-2.77 -1.95,-4.17 -0.76,-1.35 -1.49,-2.72 -2.21,-4.1 -0.7,-1.39 -1.37,-2.8 -2.03,-4.22 -0.63,-1.43 -1.23,-2.88 -1.81,-4.34 -0.56,-1.47 -1.09,-2.96 -1.59,-4.45 -0.47,-1.51 -0.92,-3.03 -1.33,-4.55 -0.39,-1.54 -0.75,-3.09 -1.07,-4.64 -0.3,-1.56 -0.56,-3.13 -0.79,-4.7 -0.2,-1.58 -0.37,-3.16 -0.51,-4.75 -0.1,-1.59 -0.17,-3.19 -0.21,-4.78 -0.01,-1.6 0.02,-3.19 0.08,-4.79 0.09,-1.59 0.22,-3.18 0.37,-4.77 0.19,-1.59 0.41,-3.17 0.66,-4.74 0.28,-1.58 0.59,-3.14 0.93,-4.7 0.37,-1.55 0.77,-3.09 1.2,-4.63 0.46,-1.53 0.94,-3.04 1.45,-4.55 0.54,-1.5 1.1,-2.98 1.69,-4.46 0.61,-1.46 1.25,-2.91 1.91,-4.35 0.68,-1.43 1.39,-2.85 2.11,-4.25 0.75,-1.39 1.52,-2.77 2.31,-4.13 0.81,-1.35 1.63,-2.69 2.48,-4.01 0.86,-1.31 1.74,-2.6 2.64,-3.89 0.91,-1.27 1.84,-2.52 2.78,-3.76 0.96,-1.23 1.94,-2.44 2.93,-3.64 1,-1.19 2.01,-2.36 3.04,-3.52 1.04,-1.15 2.1,-2.28 3.17,-3.4 1.07,-1.1 2.17,-2.19 3.27,-3.27 1.11,-1.07 2.24,-2.12 3.38,-3.15 1.23,-0.94 2.47,-1.86 3.71,-2.77 1.25,-0.9 2.5,-1.78 3.76,-2.65 a 4.1628176,4.1628176 0 0 1 5.19,6.51 c -1.02,0.97 -2.01,1.97 -2.99,2.98 -0.95,1.04 -1.88,2.09 -2.79,3.16 -0.97,1 -1.92,2.01 -2.85,3.04 -0.92,1.05 -1.81,2.12 -2.68,3.2 -0.86,1.09 -1.69,2.2 -2.5,3.33 -0.8,1.13 -1.57,2.28 -2.32,3.45 -0.73,1.17 -1.44,2.35 -2.13,3.55 -0.67,1.21 -1.32,2.42 -1.95,3.65 -0.6,1.23 -1.19,2.47 -1.76,3.72 -0.55,1.25 -1.07,2.52 -1.58,3.79 -0.49,1.27 -0.96,2.55 -1.41,3.83 -0.44,1.29 -0.85,2.58 -1.25,3.88 -0.38,1.3 -0.74,2.6 -1.09,3.91 -0.33,1.31 -0.65,2.62 -0.95,3.93 -0.28,1.31 -0.55,2.63 -0.81,3.94 -0.24,1.32 -0.47,2.64 -0.69,3.96 -0.2,1.32 -0.4,2.65 -0.58,3.97 -0.16,1.32 -0.32,2.65 -0.47,3.97 -0.13,1.33 -0.25,2.66 -0.37,3.99 -0.1,1.33 -0.19,2.66 -0.27,4 -0.08,1.33 -0.14,2.67 -0.19,4.01 -0.04,1.34 -0.07,2.69 -0.09,4.03 0,1.35 0,2.7 0.01,4.06 0.03,1.35 0.07,2.71 0.12,4.07 0.06,1.37 0.14,2.74 0.23,4.1 0.11,1.38 0.23,2.75 0.36,4.13 0.15,1.37 0.32,2.75 0.51,4.13 0.2,1.39 0.42,2.77 0.66,4.15 0.26,1.38 0.54,2.77 0.85,4.15 0.46,1.32 0.95,2.63 1.46,3.94 0.54,1.29 1.1,2.58 1.68,3.85 0.61,1.27 1.24,2.52 1.89,3.77 0.68,1.23 1.38,2.44 2.1,3.65 0.75,1.19 1.52,2.36 2.32,3.52 0.81,1.14 1.65,2.27 2.51,3.38 0.88,1.09 1.78,2.17 2.71,3.22 0.94,1.04 1.9,2.05 2.89,3.05 1,0.98 1.9,2.05 2.82,3.11 0.93,1.04 1.89,2.06 2.86,3.07 1,0.99 2.01,1.97 3.04,2.92 1.04,0.94 2.11,1.85 3.19,2.75 1.1,0.87 2.21,1.73 3.35,2.56 1.14,0.81 2.31,1.6 3.49,2.36 1.19,0.74 2.4,1.46 3.62,2.16 1.23,0.66 2.48,1.31 3.74,1.93 1.27,0.59 2.55,1.16 3.85,1.7 1.3,0.51 2.61,1 3.93,1.47 1.33,0.44 2.66,0.85 4,1.23 1.35,0.36 2.7,0.7 4.06,1 1.36,0.29 2.72,0.54 4.09,0.78 1.37,0.2 2.74,0.39 4.11,0.55 1.37,0.13 2.71,0.41 4.05,0.67 1.35,0.24 2.7,0.46 4.05,0.67 1.36,0.18 2.71,0.35 4.07,0.5 1.37,0.13 2.73,0.24 4.09,0.34 1.37,0.07 2.74,0.13 4.11,0.16 1.37,0.02 2.74,0.02 4.11,0 1.37,-0.03 2.74,-0.09 4.11,-0.16 1.37,-0.1 2.73,-0.21 4.1,-0.34 1.36,-0.16 2.73,-0.33 4.09,-0.52 1.36,-0.21 2.71,-0.43 4.07,-0.68 1.35,-0.27 2.69,-0.56 4.03,-0.87 1.34,-0.32 2.68,-0.67 4.01,-1.03 1.32,-0.39 2.64,-0.8 3.95,-1.22 1.31,-0.45 2.61,-0.91 3.9,-1.4 1.29,-0.5 2.57,-1.03 3.84,-1.57 1.26,-0.57 2.51,-1.15 3.76,-1.76 1.23,-0.62 2.46,-1.27 3.67,-1.93 1.21,-0.69 2.4,-1.39 3.58,-2.11 1.17,-0.74 2.33,-1.5 3.48,-2.28 1.13,-0.8 2.25,-1.62 3.35,-2.45 1.1,-0.85 2.17,-1.73 3.24,-2.61 1.04,-0.91 2.08,-1.83 3.09,-2.77 1,-0.96 1.99,-1.93 2.96,-2.92 0.95,-1.01 1.88,-2.03 2.8,-3.06 0.9,-1.05 1.78,-2.12 2.64,-3.2 0.85,-1.09 1.68,-2.19 2.48,-3.31 0.79,-1.13 1.57,-2.27 2.32,-3.43 0.73,-1.16 1.45,-2.34 2.14,-3.53 0.68,-1.19 1.34,-2.4 1.98,-3.61 0.62,-1.23 1.22,-2.46 1.8,-3.7 0.56,-1.25 1.11,-2.5 1.63,-3.76 0.51,-1.27 1,-2.55 1.47,-3.83 0.45,-1.28 0.89,-2.57 1.3,-3.87 0.4,-1.3 0.78,-2.61 1.15,-3.92 0.35,-1.31 0.68,-2.62 0.99,-3.94 0.3,-1.33 0.58,-2.65 0.84,-3.98 0.25,-1.33 0.48,-2.67 0.7,-4 0.2,-1.34 0.38,-2.68 0.55,-4.02 0.16,-1.34 0.43,-2.67 0.58,-4.02 0.13,-1.35 0.25,-2.7 0.35,-4.05 0.09,-1.35 0.16,-2.71 0.22,-4.07 0.04,-1.35 0.07,-2.71 0.08,-4.08 0,-1.36 -0.02,-2.72 -0.06,-4.09 -0.05,-1.37 -0.12,-2.73 -0.2,-4.1 -0.11,-1.37 -0.22,-2.74 -0.36,-4.11 -0.15,-1.36 -0.33,-2.73 -0.52,-4.1 -0.21,-1.37 -0.43,-2.73 -0.68,-4.09 -0.27,-1.37 -0.55,-2.72 -1.01,-4.03 -0.48,-1.3 -0.98,-2.59 -1.5,-3.88 -0.54,-1.27 -1.1,-2.53 -1.69,-3.78 -0.6,-1.25 -1.31,-2.44 -2.05,-3.61 -0.75,-1.16 -1.52,-2.31 -2.31,-3.44 -0.81,-1.12 -1.54,-2.27 -2.29,-3.41 -0.76,-1.13 -1.54,-2.25 -2.33,-3.36 -0.81,-1.09 -1.63,-2.18 -2.46,-3.25 -0.85,-1.06 -1.7,-2.11 -2.58,-3.14 -0.88,-1.03 -1.78,-2.04 -2.68,-3.05 -0.92,-0.99 -1.85,-1.97 -2.79,-2.94 -0.95,-0.96 -1.91,-1.9 -2.88,-2.84 -0.98,-0.93 -1.97,-1.84 -2.97,-2.75 -1.01,-0.89 -2.03,-1.77 -3.06,-2.65 -1.03,-0.86 -2.08,-1.71 -3.14,-2.55 -1.06,-0.83 -2.13,-1.65 -3.22,-2.46 -1.09,-0.8 -2.19,-1.59 -3.3,-2.37 -1.12,-0.77 -2.24,-1.52 -3.38,-2.27 -1.15,-0.73 -2.3,-1.45 -3.47,-2.16 -1.17,-0.7 -2.36,-1.39 -3.55,-2.06 -1.21,-0.66 -2.42,-1.31 -3.64,-1.94 -1.23,-0.62 -2.52,-1.1 -3.82,-1.56 -1.3,-0.44 -2.6,-0.86 -3.92,-1.27 -1.32,-0.38 -2.64,-0.74 -3.97,-1.09 -1.34,-0.33 -2.67,-0.63 -4.02,-0.92 -1.35,-0.27 -2.7,-0.51 -4.05,-0.74 -1.36,-0.21 -2.72,-0.39 -4.09,-0.56 -1.36,-0.15 -2.73,-0.28 -4.1,-0.38 -1.37,-0.09 -2.74,-0.16 -4.11,-0.21 -1.38,-0.02 -2.75,-0.03 -4.13,-0.02 -1.37,0.04 -2.74,0.09 -4.11,0.16 -1.37,0.1 -2.74,0.21 -4.11,0.35 -1.37,0.15 -2.73,0.32 -4.09,0.52 -1.36,0.21 -2.71,0.45 -4.06,0.7 -1.35,0.27 -2.69,0.56 -4.03,0.88 a 6.2491479,6.2491479 0 0 1 -2.93,-12.15 z"
     id="path1"
     style="fill:#424242;fill-opacity:1"
     transform="rotate(6.6455126,236.50728,173.16803)" />
  <path
     style="fill:url(#linearGradient7);stroke:none;stroke-width:1.5;stroke-opacity:1"
     d="m 319,691.42003 c -1.925,-0.21285 -8.225,-0.87836 -14,-1.47892 -5.775,-0.60055 -18.375,-2.39074 -28,-3.9782 -9.625,-1.58746 -21.325,-3.38339 -26,-3.99096 -52.28452,-6.79497 -105.89294,-32.4048 -144.35334,-68.9605 C 95.180626,602.11325 65.389641,570.03333 56.488987,559 37.335556,535.25724 17.025648,497.06006 10.974424,473.4 8.3267067,463.04752 4.3213486,434.41817 2.922794,415.84886 1.3650845,395.16636 2.2538625,335.67327 4.414454,316 12.785147,239.78063 30.653158,184.55118 62.496755,136.46948 74.439539,118.43668 87.850987,102.54744 113.19886,76.400063 119.6591,69.736057 123.19345,65.28273 123.5881,63.309482 124.16045,60.447768 126.64206,59.17014 181.15074,33.674119 234.19527,8.8629344 238.2661,7.1277975 240.30762,8.4592947 c 1.20581,0.7864418 4.33104,1.9069933 6.94497,2.4901153 4.06751,0.907392 6.95046,0.618789 20,-2.0021353 63.7305,-12.7999072 122.05332,-9.40970249 182.20214,10.5910953 27.87242,9.268189 71.46732,36.858567 109.18445,69.100755 16.29855,13.932675 42.69958,41.124325 55.69309,57.360875 12.50022,15.62015 38.79725,54.33758 44.23172,65.1229 6.41307,12.72743 13.2897,31.34132 15.35118,41.55309 13.5015,66.88095 7.22518,152.43868 -16.16249,220.32401 -17.39104,50.47949 -43.12337,91.62581 -79.47919,127.08824 -16.78085,16.36849 -26.37781,24.16093 -45.27835,36.76466 -42.02911,28.02689 -89.38683,45.20871 -145.49514,52.78699 -10.34388,1.3971 -60.23778,2.69372 -68.5,1.78014 z"
     id="path6"
     transform="matrix(-0.02346733,0.17151111,-0.17151111,-0.02346733,382.42047,224.81455)" />
  <path
     fill="#555555"
     stroke="None"
     d="m 215.07,76.72 c 1.52,-0.36 3.04,-0.69 4.56,-1 1.53,-0.29 3.07,-0.55 4.61,-0.79 1.54,-0.22 3.08,-0.42 4.63,-0.6 1.55,-0.15 3.1,-0.28 4.65,-0.38 1.56,-0.09 3.11,-0.15 4.67,-0.18 1.56,-0.02 3.11,-0.01 4.67,0.02 1.56,0.05 3.11,0.13 4.67,0.23 1.55,0.12 3.1,0.26 4.65,0.43 1.54,0.19 3.09,0.4 4.62,0.64 1.54,0.25 3.07,0.53 4.6,0.84 1.52,0.32 3.04,0.67 4.55,1.04 1.51,0.39 3.01,0.8 4.51,1.24 1.48,0.46 2.97,0.93 4.44,1.44 1.47,0.52 2.93,1.06 4.42,1.51 1.5,0.47 2.98,0.96 4.46,1.49 1.47,0.54 2.93,1.12 4.38,1.72 1.45,0.63 2.88,1.28 4.3,1.96 1.41,0.71 2.81,1.44 4.19,2.2 1.37,0.78 2.73,1.59 4.07,2.42 1.33,0.86 2.64,1.74 3.93,2.65 1.28,0.93 2.54,1.89 3.79,2.87 1.22,1 2.43,2.02 3.62,3.07 1.17,1.07 2.32,2.15 3.45,3.26 1.11,1.13 2.2,2.28 3.26,3.44 1.05,1.19 2.08,2.39 3.08,3.61 0.99,1.24 1.95,2.49 2.89,3.76 0.92,1.28 1.82,2.58 2.69,3.89 0.86,1.32 1.69,2.66 2.5,4.01 0.79,1.36 1.55,2.74 2.3,4.12 0.72,1.39 1.42,2.8 2.01,4.26 0.56,1.47 1.11,2.94 1.64,4.41 0.51,1.48 1,2.96 1.55,4.41 0.54,1.46 1.07,2.92 1.57,4.38 0.48,1.48 0.94,2.95 1.39,4.43 0.43,1.49 0.98,2.94 1.51,4.4 0.51,1.46 1,2.94 1.47,4.43 0.44,1.49 0.86,2.99 1.25,4.5 0.37,1.52 0.72,3.05 1.04,4.58 0.29,1.54 0.56,3.08 0.8,4.63 0.22,1.56 0.41,3.12 0.57,4.68 0.13,1.57 0.24,3.14 0.32,4.71 0.05,1.57 0.07,3.15 0.07,4.72 -0.03,1.58 -0.09,3.15 -0.18,4.73 -0.12,1.57 -0.15,3.16 -0.35,4.72 -0.22,1.57 -0.47,3.13 -0.74,4.68 -0.31,1.55 -0.64,3.09 -0.99,4.63 -0.38,1.53 -0.79,3.05 -1.22,4.57 -0.46,1.51 -0.94,3.01 -1.45,4.5 -0.53,1.48 -1.08,2.95 -1.66,4.42 -0.59,1.45 -1.22,2.89 -1.86,4.32 -0.66,1.43 -1.35,2.84 -2.06,4.24 -0.72,1.38 -1.47,2.76 -2.24,4.12 -0.79,1.35 -1.59,2.69 -2.42,4.02 -0.84,1.31 -1.7,2.62 -2.58,3.9 -0.89,1.28 -1.8,2.54 -2.73,3.79 -0.95,1.24 -1.91,2.46 -2.88,3.67 -0.99,1.19 -2,2.37 -3.02,3.54 -1.04,1.15 -2.09,2.29 -3.16,3.41 -1.08,1.11 -2.17,2.21 -3.28,3.29 -1.12,1.07 -2.26,2.12 -3.4,3.15 -1.17,1.03 -2.34,2.03 -3.53,3.02 -1.19,0.98 -2.41,1.94 -3.63,2.88 -1.24,0.93 -2.48,1.84 -3.74,2.74 -1.27,0.88 -2.56,1.74 -3.85,2.58 -1.3,0.83 -2.62,1.64 -3.95,2.44 -1.34,0.77 -2.68,1.53 -4.04,2.27 -1.37,0.72 -2.75,1.42 -4.14,2.11 -1.4,0.66 -2.81,1.31 -4.23,1.93 -1.42,0.61 -2.86,1.19 -4.3,1.76 -1.45,0.55 -2.92,1.07 -4.38,1.57 -1.48,0.49 -2.96,0.95 -4.46,1.39 -1.49,0.41 -3,0.81 -4.51,1.18 -1.51,0.35 -3.03,0.68 -4.56,0.98 -1.53,0.29 -3.07,0.55 -4.61,0.78 -1.54,0.21 -3.09,0.4 -4.64,0.57 -1.56,0.14 -3.11,0.25 -4.67,0.35 -1.56,0.07 -3.12,0.11 -4.68,0.13 -1.56,0 -3.12,-0.03 -4.69,-0.08 -1.56,-0.08 -3.12,-0.18 -4.67,-0.31 -1.56,-0.15 -3.11,-0.32 -4.66,-0.52 -1.55,-0.22 -3.09,-0.47 -4.63,-0.74 -1.54,-0.29 -3.07,-0.61 -4.56,-1.11 -1.48,-0.52 -2.95,-1.06 -4.41,-1.61 -1.45,-0.57 -2.89,-1.16 -4.33,-1.76 -1.42,-0.62 -2.83,-1.26 -4.24,-1.91 -1.4,-0.66 -2.78,-1.34 -4.16,-2.03 -1.37,-0.7 -2.73,-1.42 -4.08,-2.15 -1.34,-0.74 -2.68,-1.5 -4,-2.26 -1.32,-0.78 -2.62,-1.58 -3.92,-2.38 -1.29,-0.82 -2.57,-1.65 -3.85,-2.49 -1.26,-0.86 -2.51,-1.73 -3.76,-2.61 -1.24,-0.89 -2.47,-1.8 -3.68,-2.71 -1.21,-0.94 -2.41,-1.88 -3.6,-2.84 -1.18,-0.97 -2.35,-1.96 -3.51,-2.96 -1.14,-1.01 -2.28,-2.04 -3.4,-3.08 -1.12,-1.06 -2.22,-2.13 -3.18,-3.33 -0.96,-1.2 -1.9,-2.41 -2.82,-3.63 -0.92,-1.23 -1.82,-2.47 -2.7,-3.71 -0.88,-1.25 -1.74,-2.52 -2.59,-3.78 -0.84,-1.28 -1.66,-2.57 -2.47,-3.86 -0.79,-1.3 -1.58,-2.61 -2.35,-3.93 -0.75,-1.33 -1.49,-2.66 -2.22,-4.01 -0.71,-1.35 -1.41,-2.71 -2.09,-4.08 -0.67,-1.38 -1.32,-2.77 -1.95,-4.17 -0.76,-1.35 -1.49,-2.72 -2.21,-4.1 -0.7,-1.39 -1.37,-2.8 -2.03,-4.22 -0.63,-1.43 -1.23,-2.88 -1.81,-4.34 -0.56,-1.47 -1.09,-2.96 -1.59,-4.45 -0.47,-1.51 -0.92,-3.03 -1.33,-4.55 -0.39,-1.54 -0.75,-3.09 -1.07,-4.64 -0.3,-1.56 -0.56,-3.13 -0.79,-4.7 -0.2,-1.58 -0.37,-3.16 -0.51,-4.75 -0.1,-1.59 -0.17,-3.19 -0.21,-4.78 -0.01,-1.6 0.02,-3.19 0.08,-4.79 0.09,-1.59 0.22,-3.18 0.37,-4.77 0.19,-1.59 0.41,-3.17 0.66,-4.74 0.28,-1.58 0.59,-3.14 0.93,-4.7 0.37,-1.55 0.77,-3.09 1.2,-4.63 0.46,-1.53 0.94,-3.04 1.45,-4.55 0.54,-1.5 1.1,-2.98 1.69,-4.46 0.61,-1.46 1.25,-2.91 1.91,-4.35 0.68,-1.43 1.39,-2.85 2.11,-4.25 0.75,-1.39 1.52,-2.77 2.31,-4.13 0.81,-1.35 1.63,-2.69 2.48,-4.01 0.86,-1.31 1.74,-2.6 2.64,-3.89 0.91,-1.27 1.84,-2.52 2.78,-3.76 0.96,-1.23 1.94,-2.44 2.93,-3.64 1,-1.19 2.01,-2.36 3.04,-3.52 1.04,-1.15 2.1,-2.28 3.17,-3.4 1.07,-1.1 2.17,-2.19 3.27,-3.27 1.11,-1.07 2.24,-2.12 3.38,-3.15 1.23,-0.94 2.47,-1.86 3.71,-2.77 1.25,-0.9 2.5,-1.78 3.76,-2.65 a 4.1628176,4.1628176 0 0 1 5.19,6.51 c -1.02,0.97 -2.01,1.97 -2.99,2.98 -0.95,1.04 -1.88,2.09 -2.79,3.16 -0.97,1 -1.92,2.01 -2.85,3.04 -0.92,1.05 -1.81,2.12 -2.68,3.2 -0.86,1.09 -1.69,2.2 -2.5,3.33 -0.8,1.13 -1.57,2.28 -2.32,3.45 -0.73,1.17 -1.44,2.35 -2.13,3.55 -0.67,1.21 -1.32,2.42 -1.95,3.65 -0.6,1.23 -1.19,2.47 -1.76,3.72 -0.55,1.25 -1.07,2.52 -1.58,3.79 -0.49,1.27 -0.96,2.55 -1.41,3.83 -0.44,1.29 -0.85,2.58 -1.25,3.88 -0.38,1.3 -0.74,2.6 -1.09,3.91 -0.33,1.31 -0.65,2.62 -0.95,3.93 -0.28,1.31 -0.55,2.63 -0.81,3.94 -0.24,1.32 -0.47,2.64 -0.69,3.96 -0.2,1.32 -0.4,2.65 -0.58,3.97 -0.16,1.32 -0.32,2.65 -0.47,3.97 -0.13,1.33 -0.25,2.66 -0.37,3.99 -0.1,1.33 -0.19,2.66 -0.27,4 -0.08,1.33 -0.14,2.67 -0.19,4.01 -0.04,1.34 -0.07,2.69 -0.09,4.03 0,1.35 0,2.7 0.01,4.06 0.03,1.35 0.07,2.71 0.12,4.07 0.06,1.37 0.14,2.74 0.23,4.1 0.11,1.38 0.23,2.75 0.36,4.13 0.15,1.37 0.32,2.75 0.51,4.13 0.2,1.39 0.42,2.77 0.66,4.15 0.26,1.38 0.54,2.77 0.85,4.15 0.46,1.32 0.95,2.63 1.46,3.94 0.54,1.29 1.1,2.58 1.68,3.85 0.61,1.27 1.24,2.52 1.89,3.77 0.68,1.23 1.38,2.44 2.1,3.65 0.75,1.19 1.52,2.36 2.32,3.52 0.81,1.14 1.65,2.27 2.51,3.38 0.88,1.09 1.78,2.17 2.71,3.22 0.94,1.04 1.9,2.05 2.89,3.05 1,0.98 1.9,2.05 2.82,3.11 0.93,1.04 1.89,2.06 2.86,3.07 1,0.99 2.01,1.97 3.04,2.92 1.04,0.94 2.11,1.85 3.19,2.75 1.1,0.87 2.21,1.73 3.35,2.56 1.14,0.81 2.31,1.6 3.49,2.36 1.19,0.74 2.4,1.46 3.62,2.16 1.23,0.66 2.48,1.31 3.74,1.93 1.27,0.59 2.55,1.16 3.85,1.7 1.3,0.51 2.61,1 3.93,1.47 1.33,0.44 2.66,0.85 4,1.23 1.35,0.36 2.7,0.7 4.06,1 1.36,0.29 2.72,0.54 4.09,0.78 1.37,0.2 2.74,0.39 4.11,0.55 1.37,0.13 2.71,0.41 4.05,0.67 1.35,0.24 2.7,0.46 4.05,0.67 1.36,0.18 2.71,0.35 4.07,0.5 1.37,0.13 2.73,0.24 4.09,0.34 1.37,0.07 2.74,0.13 4.11,0.16 1.37,0.02 2.74,0.02 4.11,0 1.37,-0.03 2.74,-0.09 4.11,-0.16 1.37,-0.1 2.73,-0.21 4.1,-0.34 1.36,-0.16 2.73,-0.33 4.09,-0.52 1.36,-0.21 2.71,-0.43 4.07,-0.68 1.35,-0.27 2.69,-0.56 4.03,-0.87 1.34,-0.32 2.68,-0.67 4.01,-1.03 1.32,-0.39 2.64,-0.8 3.95,-1.22 1.31,-0.45 2.61,-0.91 3.9,-1.4 1.29,-0.5 2.57,-1.03 3.84,-1.57 1.26,-0.57 2.51,-1.15 3.76,-1.76 1.23,-0.62 2.46,-1.27 3.67,-1.93 1.21,-0.69 2.4,-1.39 3.58,-2.11 1.17,-0.74 2.33,-1.5 3.48,-2.28 1.13,-0.8 2.25,-1.62 3.35,-2.45 1.1,-0.85 2.17,-1.73 3.24,-2.61 1.04,-0.91 2.08,-1.83 3.09,-2.77 1,-0.96 1.99,-1.93 2.96,-2.92 0.95,-1.01 1.88,-2.03 2.8,-3.06 0.9,-1.05 1.78,-2.12 2.64,-3.2 0.85,-1.09 1.68,-2.19 2.48,-3.31 0.79,-1.13 1.57,-2.27 2.32,-3.43 0.73,-1.16 1.45,-2.34 2.14,-3.53 0.68,-1.19 1.34,-2.4 1.98,-3.61 0.62,-1.23 1.22,-2.46 1.8,-3.7 0.56,-1.25 1.11,-2.5 1.63,-3.76 0.51,-1.27 1,-2.55 1.47,-3.83 0.45,-1.28 0.89,-2.57 1.3,-3.87 0.4,-1.3 0.78,-2.61 1.15,-3.92 0.35,-1.31 0.68,-2.62 0.99,-3.94 0.3,-1.33 0.58,-2.65 0.84,-3.98 0.25,-1.33 0.48,-2.67 0.7,-4 0.2,-1.34 0.38,-2.68 0.55,-4.02 0.16,-1.34 0.43,-2.67 0.58,-4.02 0.13,-1.35 0.25,-2.7 0.35,-4.05 0.09,-1.35 0.16,-2.71 0.22,-4.07 0.04,-1.35 0.07,-2.71 0.08,-4.08 0,-1.36 -0.02,-2.72 -0.06,-4.09 -0.05,-1.37 -0.12,-2.73 -0.2,-4.1 -0.11,-1.37 -0.22,-2.74 -0.36,-4.11 -0.15,-1.36 -0.33,-2.73 -0.52,-4.1 -0.21,-1.37 -0.43,-2.73 -0.68,-4.09 -0.27,-1.37 -0.55,-2.72 -1.01,-4.03 -0.48,-1.3 -0.98,-2.59 -1.5,-3.88 -0.54,-1.27 -1.1,-2.53 -1.69,-3.78 -0.6,-1.25 -1.31,-2.44 -2.05,-3.61 -0.75,-1.16 -1.52,-2.31 -2.31,-3.44 -0.81,-1.12 -1.54,-2.27 -2.29,-3.41 -0.76,-1.13 -1.54,-2.25 -2.33,-3.36 -0.81,-1.09 -1.63,-2.18 -2.46,-3.25 -0.85,-1.06 -1.7,-2.11 -2.58,-3.14 -0.88,-1.03 -1.78,-2.04 -2.68,-3.05 -0.92,-0.99 -1.85,-1.97 -2.79,-2.94 -0.95,-0.96 -1.91,-1.9 -2.88,-2.84 -0.98,-0.93 -1.97,-1.84 -2.97,-2.75 -1.01,-0.89 -2.03,-1.77 -3.06,-2.65 -1.03,-0.86 -2.08,-1.71 -3.14,-2.55 -1.06,-0.83 -2.13,-1.65 -3.22,-2.46 -1.09,-0.8 -2.19,-1.59 -3.3,-2.37 -1.12,-0.77 -2.24,-1.52 -3.38,-2.27 -1.15,-0.73 -2.3,-1.45 -3.47,-2.16 -1.17,-0.7 -2.36,-1.39 -3.55,-2.06 -1.21,-0.66 -2.42,-1.31 -3.64,-1.94 -1.23,-0.62 -2.52,-1.1 -3.82,-1.56 -1.3,-0.44 -2.6,-0.86 -3.92,-1.27 -1.32,-0.38 -2.64,-0.74 -3.97,-1.09 -1.34,-0.33 -2.67,-0.63 -4.02,-0.92 -1.35,-0.27 -2.7,-0.51 -4.05,-0.74 -1.36,-0.21 -2.72,-0.39 -4.09,-0.56 -1.36,-0.15 -2.73,-0.28 -4.1,-0.38 -1.37,-0.09 -2.74,-0.16 -4.11,-0.21 -1.38,-0.02 -2.75,-0.03 -4.13,-0.02 -1.37,0.04 -2.74,0.09 -4.11,0.16 -1.37,0.1 -2.74,0.21 -4.11,0.35 -1.37,0.15 -2.73,0.32 -4.09,0.52 -1.36,0.21 -2.71,0.45 -4.06,0.7 -1.35,0.27 -2.69,0.56 -4.03,0.88 a 6.2491479,6.2491479 0 0 1 -2.93,-12.15 z"
     id="path7"
     style="fill:#424242;fill-opacity:1"
     transform="matrix(-0.47696605,0.36215214,-0.36215214,-0.47696605,494.30785,273.66959)" />
  <path
     style="fill:url(#linearGradient9);stroke:none;stroke-width:1.5;stroke-opacity:1"
     d="m 319,691.42003 c -1.925,-0.21285 -8.225,-0.87836 -14,-1.47892 -5.775,-0.60055 -18.375,-2.39074 -28,-3.9782 -9.625,-1.58746 -21.325,-3.38339 -26,-3.99096 -52.28452,-6.79497 -105.89294,-32.4048 -144.35334,-68.9605 C 95.180626,602.11325 65.389641,570.03333 56.488987,559 37.335556,535.25724 17.025648,497.06006 10.974424,473.4 8.3267067,463.04752 4.3213486,434.41817 2.922794,415.84886 1.3650845,395.16636 2.2538625,335.67327 4.414454,316 12.785147,239.78063 30.653158,184.55118 62.496755,136.46948 74.439539,118.43668 87.850987,102.54744 113.19886,76.400063 119.6591,69.736057 123.19345,65.28273 123.5881,63.309482 124.16045,60.447768 126.64206,59.17014 181.15074,33.674119 234.19527,8.8629344 238.2661,7.1277975 240.30762,8.4592947 c 1.20581,0.7864418 4.33104,1.9069933 6.94497,2.4901153 4.06751,0.907392 6.95046,0.618789 20,-2.0021353 63.7305,-12.7999072 122.05332,-9.40970249 182.20214,10.5910953 27.87242,9.268189 71.46732,36.858567 109.18445,69.100755 16.29855,13.932675 42.69958,41.124325 55.69309,57.360875 12.50022,15.62015 38.79725,54.33758 44.23172,65.1229 6.41307,12.72743 13.2897,31.34132 15.35118,41.55309 13.5015,66.88095 7.22518,152.43868 -16.16249,220.32401 -17.39104,50.47949 -43.12337,91.62581 -79.47919,127.08824 -16.78085,16.36849 -26.37781,24.16093 -45.27835,36.76466 -42.02911,28.02689 -89.38683,45.20871 -145.49514,52.78699 -10.34388,1.3971 -60.23778,2.69372 -68.5,1.78014 z"
     id="path8"
     transform="matrix(0.09997651,0.13167229,-0.13167229,0.09997651,164.90738,26.186666)" />
  <path
     fill="#555555"
     stroke="None"
     d="m 215.07,76.72 c 1.52,-0.36 3.04,-0.69 4.56,-1 1.53,-0.29 3.07,-0.55 4.61,-0.79 1.54,-0.22 3.08,-0.42 4.63,-0.6 1.55,-0.15 3.1,-0.28 4.65,-0.38 1.56,-0.09 3.11,-0.15 4.67,-0.18 1.56,-0.02 3.11,-0.01 4.67,0.02 1.56,0.05 3.11,0.13 4.67,0.23 1.55,0.12 3.1,0.26 4.65,0.43 1.54,0.19 3.09,0.4 4.62,0.64 1.54,0.25 3.07,0.53 4.6,0.84 1.52,0.32 3.04,0.67 4.55,1.04 1.51,0.39 3.01,0.8 4.51,1.24 1.48,0.46 2.97,0.93 4.44,1.44 1.47,0.52 2.93,1.06 4.42,1.51 1.5,0.47 2.98,0.96 4.46,1.49 1.47,0.54 2.93,1.12 4.38,1.72 1.45,0.63 2.88,1.28 4.3,1.96 1.41,0.71 2.81,1.44 4.19,2.2 1.37,0.78 2.73,1.59 4.07,2.42 1.33,0.86 2.64,1.74 3.93,2.65 1.28,0.93 2.54,1.89 3.79,2.87 1.22,1 2.43,2.02 3.62,3.07 1.17,1.07 2.32,2.15 3.45,3.26 1.11,1.13 2.2,2.28 3.26,3.44 1.05,1.19 2.08,2.39 3.08,3.61 0.99,1.24 1.95,2.49 2.89,3.76 0.92,1.28 1.82,2.58 2.69,3.89 0.86,1.32 1.69,2.66 2.5,4.01 0.79,1.36 1.55,2.74 2.3,4.12 0.72,1.39 1.42,2.8 2.01,4.26 0.56,1.47 1.11,2.94 1.64,4.41 0.51,1.48 1,2.96 1.55,4.41 0.54,1.46 1.07,2.92 1.57,4.38 0.48,1.48 0.94,2.95 1.39,4.43 0.43,1.49 0.98,2.94 1.51,4.4 0.51,1.46 1,2.94 1.47,4.43 0.44,1.49 0.86,2.99 1.25,4.5 0.37,1.52 0.72,3.05 1.04,4.58 0.29,1.54 0.56,3.08 0.8,4.63 0.22,1.56 0.41,3.12 0.57,4.68 0.13,1.57 0.24,3.14 0.32,4.71 0.05,1.57 0.07,3.15 0.07,4.72 -0.03,1.58 -0.09,3.15 -0.18,4.73 -0.12,1.57 -0.15,3.16 -0.35,4.72 -0.22,1.57 -0.47,3.13 -0.74,4.68 -0.31,1.55 -0.64,3.09 -0.99,4.63 -0.38,1.53 -0.79,3.05 -1.22,4.57 -0.46,1.51 -0.94,3.01 -1.45,4.5 -0.53,1.48 -1.08,2.95 -1.66,4.42 -0.59,1.45 -1.22,2.89 -1.86,4.32 -0.66,1.43 -1.35,2.84 -2.06,4.24 -0.72,1.38 -1.47,2.76 -2.24,4.12 -0.79,1.35 -1.59,2.69 -2.42,4.02 -0.84,1.31 -1.7,2.62 -2.58,3.9 -0.89,1.28 -1.8,2.54 -2.73,3.79 -0.95,1.24 -1.91,2.46 -2.88,3.67 -0.99,1.19 -2,2.37 -3.02,3.54 -1.04,1.15 -2.09,2.29 -3.16,3.41 -1.08,1.11 -2.17,2.21 -3.28,3.29 -1.12,1.07 -2.26,2.12 -3.4,3.15 -1.17,1.03 -2.34,2.03 -3.53,3.02 -1.19,0.98 -2.41,1.94 -3.63,2.88 -1.24,0.93 -2.48,1.84 -3.74,2.74 -1.27,0.88 -2.56,1.74 -3.85,2.58 -1.3,0.83 -2.62,1.64 -3.95,2.44 -1.34,0.77 -2.68,1.53 -4.04,2.27 -1.37,0.72 -2.75,1.42 -4.14,2.11 -1.4,0.66 -2.81,1.31 -4.23,1.93 -1.42,0.61 -2.86,1.19 -4.3,1.76 -1.45,0.55 -2.92,1.07 -4.38,1.57 -1.48,0.49 -2.96,0.95 -4.46,1.39 -1.49,0.41 -3,0.81 -4.51,1.18 -1.51,0.35 -3.03,0.68 -4.56,0.98 -1.53,0.29 -3.07,0.55 -4.61,0.78 -1.54,0.21 -3.09,0.4 -4.64,0.57 -1.56,0.14 -3.11,0.25 -4.67,0.35 -1.56,0.07 -3.12,0.11 -4.68,0.13 -1.56,0 -3.12,-0.03 -4.69,-0.08 -1.56,-0.08 -3.12,-0.18 -4.67,-0.31 -1.56,-0.15 -3.11,-0.32 -4.66,-0.52 -1.55,-0.22 -3.09,-0.47 -4.63,-0.74 -1.54,-0.29 -3.07,-0.61 -4.56,-1.11 -1.48,-0.52 -2.95,-1.06 -4.41,-1.61 -1.45,-0.57 -2.89,-1.16 -4.33,-1.76 -1.42,-0.62 -2.83,-1.26 -4.24,-1.91 -1.4,-0.66 -2.78,-1.34 -4.16,-2.03 -1.37,-0.7 -2.73,-1.42 -4.08,-2.15 -1.34,-0.74 -2.68,-1.5 -4,-2.26 -1.32,-0.78 -2.62,-1.58 -3.92,-2.38 -1.29,-0.82 -2.57,-1.65 -3.85,-2.49 -1.26,-0.86 -2.51,-1.73 -3.76,-2.61 -1.24,-0.89 -2.47,-1.8 -3.68,-2.71 -1.21,-0.94 -2.41,-1.88 -3.6,-2.84 -1.18,-0.97 -2.35,-1.96 -3.51,-2.96 -1.14,-1.01 -2.28,-2.04 -3.4,-3.08 -1.12,-1.06 -2.22,-2.13 -3.18,-3.33 -0.96,-1.2 -1.9,-2.41 -2.82,-3.63 -0.92,-1.23 -1.82,-2.47 -2.7,-3.71 -0.88,-1.25 -1.74,-2.52 -2.59,-3.78 -0.84,-1.28 -1.66,-2.57 -2.47,-3.86 -0.79,-1.3 -1.58,-2.61 -2.35,-3.93 -0.75,-1.33 -1.49,-2.66 -2.22,-4.01 -0.71,-1.35 -1.41,-2.71 -2.09,-4.08 -0.67,-1.38 -1.32,-2.77 -1.95,-4.17 -0.76,-1.35 -1.49,-2.72 -2.21,-4.1 -0.7,-1.39 -1.37,-2.8 -2.03,-4.22 -0.63,-1.43 -1.23,-2.88 -1.81,-4.34 -0.56,-1.47 -1.09,-2.96 -1.59,-4.45 -0.47,-1.51 -0.92,-3.03 -1.33,-4.55 -0.39,-1.54 -0.75,-3.09 -1.07,-4.64 -0.3,-1.56 -0.56,-3.13 -0.79,-4.7 -0.2,-1.58 -0.37,-3.16 -0.51,-4.75 -0.1,-1.59 -0.17,-3.19 -0.21,-4.78 -0.01,-1.6 0.02,-3.19 0.08,-4.79 0.09,-1.59 0.22,-3.18 0.37,-4.77 0.19,-1.59 0.41,-3.17 0.66,-4.74 0.28,-1.58 0.59,-3.14 0.93,-4.7 0.37,-1.55 0.77,-3.09 1.2,-4.63 0.46,-1.53 0.94,-3.04 1.45,-4.55 0.54,-1.5 1.1,-2.98 1.69,-4.46 0.61,-1.46 1.25,-2.91 1.91,-4.35 0.68,-1.43 1.39,-2.85 2.11,-4.25 0.75,-1.39 1.52,-2.77 2.31,-4.13 0.81,-1.35 1.63,-2.69 2.48,-4.01 0.86,-1.31 1.74,-2.6 2.64,-3.89 0.91,-1.27 1.84,-2.52 2.78,-3.76 0.96,-1.23 1.94,-2.44 2.93,-3.64 1,-1.19 2.01,-2.36 3.04,-3.52 1.04,-1.15 2.1,-2.28 3.17,-3.4 1.07,-1.1 2.17,-2.19 3.27,-3.27 1.11,-1.07 2.24,-2.12 3.38,-3.15 1.23,-0.94 2.47,-1.86 3.71,-2.77 1.25,-0.9 2.5,-1.78 3.76,-2.65 a 4.1628176,4.1628176 0 0 1 5.19,6.51 c -1.02,0.97 -2.01,1.97 -2.99,2.98 -0.95,1.04 -1.88,2.09 -2.79,3.16 -0.97,1 -1.92,2.01 -2.85,3.04 -0.92,1.05 -1.81,2.12 -2.68,3.2 -0.86,1.09 -1.69,2.2 -2.5,3.33 -0.8,1.13 -1.57,2.28 -2.32,3.45 -0.73,1.17 -1.44,2.35 -2.13,3.55 -0.67,1.21 -1.32,2.42 -1.95,3.65 -0.6,1.23 -1.19,2.47 -1.76,3.72 -0.55,1.25 -1.07,2.52 -1.58,3.79 -0.49,1.27 -0.96,2.55 -1.41,3.83 -0.44,1.29 -0.85,2.58 -1.25,3.88 -0.38,1.3 -0.74,2.6 -1.09,3.91 -0.33,1.31 -0.65,2.62 -0.95,3.93 -0.28,1.31 -0.55,2.63 -0.81,3.94 -0.24,1.32 -0.47,2.64 -0.69,3.96 -0.2,1.32 -0.4,2.65 -0.58,3.97 -0.16,1.32 -0.32,2.65 -0.47,3.97 -0.13,1.33 -0.25,2.66 -0.37,3.99 -0.1,1.33 -0.19,2.66 -0.27,4 -0.08,1.33 -0.14,2.67 -0.19,4.01 -0.04,1.34 -0.07,2.69 -0.09,4.03 0,1.35 0,2.7 0.01,4.06 0.03,1.35 0.07,2.71 0.12,4.07 0.06,1.37 0.14,2.74 0.23,4.1 0.11,1.38 0.23,2.75 0.36,4.13 0.15,1.37 0.32,2.75 0.51,4.13 0.2,1.39 0.42,2.77 0.66,4.15 0.26,1.38 0.54,2.77 0.85,4.15 0.46,1.32 0.95,2.63 1.46,3.94 0.54,1.29 1.1,2.58 1.68,3.85 0.61,1.27 1.24,2.52 1.89,3.77 0.68,1.23 1.38,2.44 2.1,3.65 0.75,1.19 1.52,2.36 2.32,3.52 0.81,1.14 1.65,2.27 2.51,3.38 0.88,1.09 1.78,2.17 2.71,3.22 0.94,1.04 1.9,2.05 2.89,3.05 1,0.98 1.9,2.05 2.82,3.11 0.93,1.04 1.89,2.06 2.86,3.07 1,0.99 2.01,1.97 3.04,2.92 1.04,0.94 2.11,1.85 3.19,2.75 1.1,0.87 2.21,1.73 3.35,2.56 1.14,0.81 2.31,1.6 3.49,2.36 1.19,0.74 2.4,1.46 3.62,2.16 1.23,0.66 2.48,1.31 3.74,1.93 1.27,0.59 2.55,1.16 3.85,1.7 1.3,0.51 2.61,1 3.93,1.47 1.33,0.44 2.66,0.85 4,1.23 1.35,0.36 2.7,0.7 4.06,1 1.36,0.29 2.72,0.54 4.09,0.78 1.37,0.2 2.74,0.39 4.11,0.55 1.37,0.13 2.71,0.41 4.05,0.67 1.35,0.24 2.7,0.46 4.05,0.67 1.36,0.18 2.71,0.35 4.07,0.5 1.37,0.13 2.73,0.24 4.09,0.34 1.37,0.07 2.74,0.13 4.11,0.16 1.37,0.02 2.74,0.02 4.11,0 1.37,-0.03 2.74,-0.09 4.11,-0.16 1.37,-0.1 2.73,-0.21 4.1,-0.34 1.36,-0.16 2.73,-0.33 4.09,-0.52 1.36,-0.21 2.71,-0.43 4.07,-0.68 1.35,-0.27 2.69,-0.56 4.03,-0.87 1.34,-0.32 2.68,-0.67 4.01,-1.03 1.32,-0.39 2.64,-0.8 3.95,-1.22 1.31,-0.45 2.61,-0.91 3.9,-1.4 1.29,-0.5 2.57,-1.03 3.84,-1.57 1.26,-0.57 2.51,-1.15 3.76,-1.76 1.23,-0.62 2.46,-1.27 3.67,-1.93 1.21,-0.69 2.4,-1.39 3.58,-2.11 1.17,-0.74 2.33,-1.5 3.48,-2.28 1.13,-0.8 2.25,-1.62 3.35,-2.45 1.1,-0.85 2.17,-1.73 3.24,-2.61 1.04,-0.91 2.08,-1.83 3.09,-2.77 1,-0.96 1.99,-1.93 2.96,-2.92 0.95,-1.01 1.88,-2.03 2.8,-3.06 0.9,-1.05 1.78,-2.12 2.64,-3.2 0.85,-1.09 1.68,-2.19 2.48,-3.31 0.79,-1.13 1.57,-2.27 2.32,-3.43 0.73,-1.16 1.45,-2.34 2.14,-3.53 0.68,-1.19 1.34,-2.4 1.98,-3.61 0.62,-1.23 1.22,-2.46 1.8,-3.7 0.56,-1.25 1.11,-2.5 1.63,-3.76 0.51,-1.27 1,-2.55 1.47,-3.83 0.45,-1.28 0.89,-2.57 1.3,-3.87 0.4,-1.3 0.78,-2.61 1.15,-3.92 0.35,-1.31 0.68,-2.62 0.99,-3.94 0.3,-1.33 0.58,-2.65 0.84,-3.98 0.25,-1.33 0.48,-2.67 0.7,-4 0.2,-1.34 0.38,-2.68 0.55,-4.02 0.16,-1.34 0.43,-2.67 0.58,-4.02 0.13,-1.35 0.25,-2.7 0.35,-4.05 0.09,-1.35 0.16,-2.71 0.22,-4.07 0.04,-1.35 0.07,-2.71 0.08,-4.08 0,-1.36 -0.02,-2.72 -0.06,-4.09 -0.05,-1.37 -0.12,-2.73 -0.2,-4.1 -0.11,-1.37 -0.22,-2.74 -0.36,-4.11 -0.15,-1.36 -0.33,-2.73 -0.52,-4.1 -0.21,-1.37 -0.43,-2.73 -0.68,-4.09 -0.27,-1.37 -0.55,-2.72 -1.01,-4.03 -0.48,-1.3 -0.98,-2.59 -1.5,-3.88 -0.54,-1.27 -1.1,-2.53 -1.69,-3.78 -0.6,-1.25 -1.31,-2.44 -2.05,-3.61 -0.75,-1.16 -1.52,-2.31 -2.31,-3.44 -0.81,-1.12 -1.54,-2.27 -2.29,-3.41 -0.76,-1.13 -1.54,-2.25 -2.33,-3.36 -0.81,-1.09 -1.63,-2.18 -2.46,-3.25 -0.85,-1.06 -1.7,-2.11 -2.58,-3.14 -0.88,-1.03 -1.78,-2.04 -2.68,-3.05 -0.92,-0.99 -1.85,-1.97 -2.79,-2.94 -0.95,-0.96 -1.91,-1.9 -2.88,-2.84 -0.98,-0.93 -1.97,-1.84 -2.97,-2.75 -1.01,-0.89 -2.03,-1.77 -3.06,-2.65 -1.03,-0.86 -2.08,-1.71 -3.14,-2.55 -1.06,-0.83 -2.13,-1.65 -3.22,-2.46 -1.09,-0.8 -2.19,-1.59 -3.3,-2.37 -1.12,-0.77 -2.24,-1.52 -3.38,-2.27 -1.15,-0.73 -2.3,-1.45 -3.47,-2.16 -1.17,-0.7 -2.36,-1.39 -3.55,-2.06 -1.21,-0.66 -2.42,-1.31 -3.64,-1.94 -1.23,-0.62 -2.52,-1.1 -3.82,-1.56 -1.3,-0.44 -2.6,-0.86 -3.92,-1.27 -1.32,-0.38 -2.64,-0.74 -3.97,-1.09 -1.34,-0.33 -2.67,-0.63 -4.02,-0.92 -1.35,-0.27 -2.7,-0.51 -4.05,-0.74 -1.36,-0.21 -2.72,-0.39 -4.09,-0.56 -1.36,-0.15 -2.73,-0.28 -4.1,-0.38 -1.37,-0.09 -2.74,-0.16 -4.11,-0.21 -1.38,-0.02 -2.75,-0.03 -4.13,-0.02 -1.37,0.04 -2.74,0.09 -4.11,0.16 -1.37,0.1 -2.74,0.21 -4.11,0.35 -1.37,0.15 -2.73,0.32 -4.09,0.52 -1.36,0.21 -2.71,0.45 -4.06,0.7 -1.35,0.27 -2.69,0.56 -4.03,0.88 a 6.2491479,6.2491479 0 0 1 -2.93,-12.15 z"
     id="path9"
     style="fill:#424242;fill-opacity:1"
     transform="matrix(0.36215214,0.47696604,-0.47696604,0.36215214,152.02045,-74.113578)" />
  <path
     style="fill:none;fill-opacity:1;stroke:#424242;stroke-width:4;stroke-dasharray:none;stroke-opacity:1;marker-end:url(#ConcaveTriangle)"
     d="m 369.06426,183.99098 181.82638,0"
     id="path30"
     sodipodi:nodetypes="cc" />
</svg>
